<svg width="30" height="23" viewBox="0 0 30 23" fill="none" xmlns="http://www.w3.org/2000/svg">
<g clip-path="url(#clip0_17_495)">
<path fill-rule="evenodd" clip-rule="evenodd" d="M0 0H42.75V1.73147H0V0ZM0 3.46289H42.75V5.19436H0V3.46289ZM0 6.92138H42.75V8.6572H0V6.92138ZM0 10.3843H42.75V12.1157H0V10.3843ZM0 13.8472H42.75V15.5786H0V13.8472ZM0 17.3056H42.75V19.0371H0V17.3056ZM0 20.7685H42.75V22.5H0V20.7685Z" fill="#BD3D44"/>
<path fill-rule="evenodd" clip-rule="evenodd" d="M0 1.73145H42.75V3.46287H0V1.73145ZM0 5.19429H42.75V6.92135H0V5.19429ZM0 8.65282H42.75V10.3842H0V8.65282ZM0 12.1157H42.75V13.8471H0V12.1157ZM0 15.5786H42.75V17.31H0V15.5786ZM0 19.0371H42.75V20.7686H0V19.0371Z" fill="white"/>
<path fill-rule="evenodd" clip-rule="evenodd" d="M0 0H17.0991V12.1157H0V0Z" fill="#192F5D"/>
<path fill-rule="evenodd" clip-rule="evenodd" d="M1.4238 0.518555L1.58201 0.997477H2.08301L1.67866 1.29195L1.83251 1.77532L1.4238 1.47649L1.01951 1.77091L1.1733 1.29195L0.764648 0.997477H1.27441L1.4238 0.518555ZM4.27587 0.518555L4.42966 0.997477H4.93502L4.52632 1.29195L4.68016 1.77532L4.27587 1.47649L3.86716 1.77091L4.02096 1.29195L3.61666 0.997477H4.11766L4.27587 0.518555ZM7.12352 0.518555L7.28173 0.997523H7.77832L7.37402 1.29199L7.52777 1.77537L7.11912 1.47654L6.71482 1.77096L6.86862 1.29199L6.45991 0.997523H6.96532L7.12352 0.518555ZM9.97559 0.518555L10.1293 0.997523H10.6347L10.226 1.29199L10.3842 1.77537L9.97554 1.47654L9.56688 1.77096L9.72509 1.29199L9.31638 0.997523H9.81738L9.97559 0.518555ZM12.8232 0.518555L12.9814 0.997523H13.4824L13.0781 1.29199L13.2319 1.77537L12.8232 1.47654L12.4189 1.77096L12.5727 1.29199L12.1684 0.997523H12.6694L12.8232 0.518555ZM15.6753 0.518555L15.8291 0.997523H16.3345L15.9258 1.29199L16.084 1.77537L15.6753 1.47654L15.2666 1.77096L15.4248 1.29199L15.0161 0.997523H15.5215L15.6753 0.518555ZM2.85204 1.73135L3.00584 2.21041H3.5112L3.10249 2.50479L3.25193 2.98385L2.8564 2.68938L2.44774 2.9838L2.59273 2.50484L2.19724 2.21037H2.69824L2.85204 1.73135ZM5.6997 1.73135L5.8579 2.21041H6.35885L5.95015 2.50479L6.1084 2.98385L5.69965 2.68938L5.29099 2.9838L5.44919 2.50484L5.04049 2.21037H5.54585L5.6997 1.73135ZM8.55176 1.73135L8.70551 2.21041H9.21091L8.80221 2.50479L8.95601 2.98385L8.55171 2.68938L8.14305 2.9838L8.29685 2.50488L7.89255 2.21041H8.39355L8.55176 1.73135ZM11.3994 1.73135L11.5576 2.21041H12.0586L11.6499 2.50479L11.8081 2.98385L11.3994 2.68938L10.9951 2.9838L11.1489 2.50484L10.7402 2.21037H11.25L11.3994 1.73135ZM14.2514 1.73135L14.4052 2.21041H14.9106L14.5019 2.50479L14.6557 2.98385L14.2514 2.68938L13.8427 2.9838L13.9966 2.50484L13.5923 2.21037H14.0932L14.2514 1.73135ZM1.4238 2.93998L1.58201 3.42776H2.08301L1.67866 3.72218L1.83251 4.2012L1.4238 3.90237L1.01951 4.2012L1.1733 3.71777L0.764648 3.4234H1.27441L1.4238 2.93998ZM4.27587 2.93998L4.42966 3.42326H4.93502L4.52632 3.71768L4.68016 4.19674L4.27587 3.89787L3.86716 4.1967L4.02096 3.71332L3.61666 3.4189H4.11766L4.27587 2.93998ZM7.12352 2.93998L7.28173 3.42335H7.77832L7.37402 3.71777L7.52777 4.19684L7.11912 3.89796L6.71482 4.19679L6.86862 3.71341L6.45991 3.41899H6.96532L7.12352 2.93998ZM9.97559 2.93998L10.1293 3.42335H10.6347L10.226 3.71777L10.3842 4.19684L9.97554 3.89796L9.56688 4.19679L9.72509 3.71341L9.31638 3.41899H9.81738L9.97559 2.93998ZM12.8232 2.93998L12.9814 3.42335H13.4824L13.0781 3.71773L13.2319 4.19679L12.8232 3.89791L12.4189 4.19674L12.5727 3.71337L12.1684 3.41895H12.6694L12.8232 2.93998ZM15.6753 2.93998L15.8291 3.42335H16.3345L15.9258 3.71777L16.084 4.19684L15.6753 3.89796L15.2666 4.19679L15.4248 3.71341L15.0161 3.41899H15.5215L15.6753 2.93998ZM2.85204 4.15282L3.00584 4.63184H3.5112L3.10249 4.92621L3.25634 5.40963L2.85204 5.1108L2.44334 5.40523L2.59713 4.92626L2.19284 4.63184H2.69388L2.85204 4.15282ZM5.6997 4.15282L5.8579 4.63184H6.35885L5.95015 4.92621L6.1084 5.40963L5.69965 5.1108L5.29099 5.40523L5.44919 4.92626L5.04049 4.63184H5.54585L5.6997 4.15282ZM8.55176 4.15282L8.70551 4.63184H9.21091L8.80221 4.92621L8.95601 5.40963L8.55171 5.1108L8.14305 5.40523L8.29685 4.92626L7.89255 4.63184H8.39355L8.55176 4.15282ZM11.3994 4.15282L11.5576 4.63184H12.0586L11.6543 4.92621L11.8081 5.40963L11.3994 5.1108L10.9951 5.40523L11.1489 4.92626L10.7402 4.63184H11.25L11.3994 4.15282ZM14.2514 4.15282L14.4052 4.63184H14.9106L14.5019 4.92621L14.6557 5.40963L14.2514 5.1108L13.8427 5.40523L13.9966 4.92626L13.5923 4.63184H14.0932L14.2514 4.15282ZM1.4238 5.36571L1.58201 5.84473H2.08301L1.67866 6.1391L1.83251 6.62252L1.4238 6.3237L1.01951 6.61812L1.1733 6.13915L0.764648 5.84473H1.27441L1.4238 5.36571ZM4.27587 5.36571L4.42966 5.84473H4.93502L4.52632 6.1391L4.68016 6.61816L4.27587 6.3237L3.86716 6.61812L4.02096 6.13915L3.61666 5.84473H4.11766L4.27587 5.36571ZM7.12352 5.36571L7.28173 5.84473H7.77832L7.37402 6.1391L7.52777 6.62252L7.11912 6.3237L6.71482 6.61812L6.86862 6.13915L6.45991 5.84473H6.96532L7.12352 5.36571ZM9.97559 5.36571L10.1293 5.84473H10.6347L10.226 6.1391L10.3842 6.62252L9.97554 6.3237L9.56688 6.61812L9.72509 6.13915L9.31638 5.84473H9.81738L9.97559 5.36571ZM12.8232 5.36571L12.9814 5.84473H13.4824L13.0781 6.1391L13.2319 6.62252L12.8232 6.3237L12.4189 6.61812L12.5727 6.13915L12.1684 5.84473H12.6694L12.8232 5.36571ZM15.6753 5.36571L15.8291 5.84473H16.3345L15.9258 6.1391L16.084 6.62252L15.6753 6.3237L15.2666 6.61812L15.4248 6.13915L15.0161 5.84473H15.5215L15.6753 5.36571ZM2.85204 6.5786L3.00584 7.05762H3.5112L3.10249 7.35199L3.25634 7.83105L2.85204 7.53223L2.44334 7.83105L2.59713 7.34763L2.19284 7.05321H2.69388L2.85204 6.5786ZM5.6997 6.5786L5.8579 7.05762H6.35885L5.95015 7.35199L6.1084 7.83105L5.69965 7.53223L5.29099 7.83105L5.44919 7.34763L5.04049 7.05321H5.54585L5.6997 6.5786ZM8.55176 6.5786L8.70551 7.05762H9.21091L8.80221 7.35199L8.95601 7.83105L8.55171 7.53223L8.14305 7.83105L8.29685 7.34763L7.89255 7.05321H8.39355L8.55176 6.5786ZM11.3994 6.5786L11.5576 7.05762H12.0586L11.6543 7.35199L11.8081 7.83105L11.3994 7.53223L10.9951 7.83105L11.1489 7.34763L10.7402 7.05321H11.25L11.3994 6.5786ZM14.2514 6.5786L14.4052 7.05762H14.9106L14.5019 7.35199L14.6557 7.83105L14.2514 7.53223L13.8427 7.83105L13.9966 7.34763L13.5923 7.05321H14.0932L14.2514 6.5786ZM1.4238 7.78709L1.58201 8.27051H2.08301L1.67866 8.56488L1.83251 9.03954L1.4238 8.74512L1.01951 9.03949L1.1733 8.56052L0.764648 8.2661H1.27441L1.4238 7.78709ZM4.27587 7.78709L4.42966 8.27051H4.93502L4.52632 8.56488L4.68457 9.03954L4.27582 8.74512L3.86716 9.03949L4.02537 8.56052L3.61666 8.2661H4.11766L4.27587 7.78709ZM7.12352 7.78709L7.28173 8.27051H7.77832L7.37402 8.56488L7.52777 9.03954L7.11912 8.74512L6.71482 9.03949L6.86862 8.56052L6.45991 8.2661H6.96532L7.12352 7.78709ZM9.97559 7.78709L10.1293 8.27051H10.6347L10.226 8.56488L10.3842 9.03954L9.97554 8.74512L9.56688 9.03949L9.72509 8.56052L9.31638 8.2661H9.81738L9.97559 7.78709ZM12.8232 7.78709L12.9814 8.27051H13.4824L13.0781 8.56488L13.2319 9.03954L12.8232 8.74512L12.4189 9.03949L12.5727 8.56052L12.1684 8.2661H12.6694L12.8232 7.78709ZM15.6753 7.78709L15.8291 8.27051H16.3345L15.9258 8.56488L16.084 9.03954L15.6753 8.74512L15.2666 9.03949L15.4248 8.56052L15.0161 8.2661H15.5215L15.6753 7.78709ZM2.85204 8.99998L3.00584 9.47899H3.5112L3.10249 9.77341L3.25634 10.2568L2.85204 9.95801L2.44334 10.2524L2.59713 9.77341L2.19284 9.47899H2.69388L2.85204 8.99998ZM5.6997 8.99998L5.8579 9.47899H6.35885L5.95015 9.77341L6.1084 10.2568L5.69965 9.95801L5.29099 10.2524L5.44919 9.77341L5.04049 9.47899H5.54585L5.6997 8.99998ZM8.55176 8.99998L8.70551 9.47899H9.21091L8.80221 9.77341L8.95601 10.2568L8.55171 9.95801L8.14305 10.2524L8.29685 9.77341L7.89255 9.47899H8.39355L8.55176 8.99998ZM11.3994 8.99998L11.5576 9.47899H12.0586L11.6543 9.77341L11.8081 10.2568L11.3994 9.95801L10.9951 10.2524L11.1489 9.77341L10.7402 9.47899H11.25L11.3994 8.99998ZM14.2514 8.99998L14.4052 9.47899H14.9106L14.5019 9.77341L14.6557 10.2568L14.2514 9.95801L13.8427 10.2524L13.9966 9.77341L13.5923 9.47899H14.0932L14.2514 8.99998ZM1.4238 10.2129L1.58201 10.6919H2.08301L1.67866 10.9863L1.83251 11.4653L1.4238 11.1709L1.01951 11.4653L1.1733 10.9819L0.764648 10.6875H1.27441L1.4238 10.2129ZM4.27587 10.2129L4.42966 10.6919H4.93502L4.52632 10.9863L4.68457 11.4653L4.27582 11.1709L3.86716 11.4653L4.02537 10.9819L3.61666 10.6875H4.11766L4.27587 10.2129ZM7.12352 10.2129L7.28173 10.6919H7.77832L7.38279 10.9863L7.53659 11.4653L7.12788 11.1709L6.72359 11.4653L6.87743 10.9819L6.46873 10.6875H6.97409L7.12352 10.2129ZM9.97559 10.2129L10.1293 10.6919H10.6347L10.226 10.9863L10.3842 11.4653L9.97554 11.1709L9.56688 11.4653L9.72509 10.9819L9.31638 10.6875H9.81738L9.97559 10.2129ZM12.8232 10.2129L12.9814 10.6919H13.4824L13.0781 10.9863L13.2319 11.4653L12.8232 11.1709L12.4189 11.4653L12.5727 10.9819L12.1684 10.6875H12.6694L12.8232 10.2129ZM15.6753 10.2129L15.8291 10.6919H16.3345L15.9258 10.9863L16.084 11.4653L15.6753 11.1709L15.2666 11.4653L15.4248 10.9819L15.0161 10.6875H15.5215L15.6753 10.2129Z" fill="white"/>
</g>
<defs>
<clipPath id="clip0_17_495">
<rect width="30" height="22.5" fill="white"/>
</clipPath>
</defs>
</svg>
