<svg width="16" height="16" viewBox="0 0 16 16" fill="none" xmlns="http://www.w3.org/2000/svg">
<g clip-path="url(#clip0_10_15)">
<path d="M15.4286 2.85709H12.5714V1.85709C12.5714 1.77852 12.5071 1.71423 12.4286 1.71423H11.4286C11.35 1.71423 11.2857 1.77852 11.2857 1.85709V2.85709H8.64286V1.85709C8.64286 1.77852 8.57857 1.71423 8.5 1.71423H7.5C7.42143 1.71423 7.35714 1.77852 7.35714 1.85709V2.85709H4.71429V1.85709C4.71429 1.77852 4.65 1.71423 4.57143 1.71423H3.57143C3.49286 1.71423 3.42857 1.77852 3.42857 1.85709V2.85709H0.571429C0.255357 2.85709 0 3.11245 0 3.42852V13.7142C0 14.0303 0.255357 14.2857 0.571429 14.2857H15.4286C15.7446 14.2857 16 14.0303 16 13.7142V3.42852C16 3.11245 15.7446 2.85709 15.4286 2.85709ZM10.6607 11.9999H9.87679C9.80179 11.9999 9.74107 11.941 9.73571 11.866C9.66786 10.9624 8.91429 10.2499 8 10.2499C7.08571 10.2499 6.33214 10.9642 6.26429 11.866C6.25893 11.941 6.19821 11.9999 6.12321 11.9999H5.33929C5.31991 12 5.30073 11.9961 5.28292 11.9884C5.2651 11.9808 5.24902 11.9696 5.23566 11.9556C5.2223 11.9416 5.21193 11.925 5.20518 11.9068C5.19844 11.8886 5.19546 11.8693 5.19643 11.8499C5.24643 10.8982 5.76786 10.0696 6.52857 9.59816C6.1931 9.2294 6.00774 8.74847 6.00893 8.24995C6.00893 7.14459 6.9 6.24995 7.99821 6.24995C9.09643 6.24995 9.9875 7.14459 9.9875 8.24995C9.9875 8.76959 9.79107 9.24102 9.46786 9.59816C10.2304 10.0714 10.75 10.8982 10.8 11.8499C10.8071 11.9321 10.7429 11.9999 10.6607 11.9999ZM8 7.32138C7.49107 7.32138 7.07679 7.73745 7.07679 8.24995C7.07679 8.76245 7.49107 9.17852 8 9.17852C8.50893 9.17852 8.92321 8.76245 8.92321 8.24995C8.92321 7.73745 8.50893 7.32138 8 7.32138Z" fill="black"/>
</g>
<defs>
<clipPath id="clip0_10_15">
<rect width="16" height="16" fill="white"/>
</clipPath>
</defs>
</svg>
