<svg width="16" height="16" viewBox="0 0 16 16" fill="none" xmlns="http://www.w3.org/2000/svg">
<path d="M15 6.28571H6.07143V2.28571C6.07143 1.73393 6.51964 1.28571 7.07143 1.28571H11.5C12.0518 1.28571 12.5 1.73393 12.5 2.28571V3.5C12.5 3.57857 12.5643 3.64286 12.6429 3.64286H13.6429C13.7214 3.64286 13.7857 3.57857 13.7857 3.5V2.28571C13.7857 1.02321 12.7625 0 11.5 0H7.07143C5.80893 0 4.78571 1.02321 4.78571 2.28571V6.28571H3.57143C3.25536 6.28571 3 6.54107 3 6.85714V13.7143C3 14.0304 3.25536 14.2857 3.57143 14.2857H15C15.3161 14.2857 15.5714 14.0304 15.5714 13.7143V6.85714C15.5714 6.54107 15.3161 6.28571 15 6.28571ZM9.78571 10.5179V11.4643C9.78571 11.5429 9.72143 11.6071 9.64286 11.6071H8.92857C8.85 11.6071 8.78571 11.5429 8.78571 11.4643V10.5179C8.63831 10.412 8.52829 10.2622 8.47148 10.0898C8.41468 9.91747 8.41402 9.73155 8.46961 9.55881C8.5252 9.38607 8.63416 9.23543 8.78082 9.12856C8.92747 9.0217 9.10425 8.96412 9.28571 8.96412C9.46718 8.96412 9.64396 9.0217 9.79061 9.12856C9.93727 9.23543 10.0462 9.38607 10.1018 9.55881C10.1574 9.73155 10.1568 9.91747 10.0999 10.0898C10.0431 10.2622 9.93312 10.412 9.78571 10.5179Z" fill="black"/>
</svg>
