<svg width="45" height="45" viewBox="0 0 45 45" fill="none" xmlns="http://www.w3.org/2000/svg">
<path d="M31.5454 26.3689H13.4547C13.893 25.5914 14.0688 24.8141 13.982 24.0367H31.018C30.9312 24.8141 31.107 25.5916 31.5454 26.3689Z" fill="#F9B087"/>
<path d="M24.2541 34.4473C24.2541 35.416 23.4687 36.2014 22.5 36.2014C21.5313 36.2014 20.7459 35.416 20.7459 34.4473V32.6092H24.2539V34.4473H24.2541Z" fill="#EBE7F2"/>
<path d="M32.6841 30.6204H12.3159C11.5798 30.6204 10.9371 30.2205 10.5933 29.626C10.424 29.9185 10.3271 30.2581 10.3271 30.6204C10.3271 31.7188 11.2175 32.6092 12.3159 32.6092H32.6841C33.7825 32.6092 34.6729 31.7188 34.6729 30.6204C34.6729 30.2581 34.576 29.9185 34.4067 29.626C34.0629 30.2203 33.4202 30.6204 32.6841 30.6204Z" fill="#EBE7F2"/>
<path d="M33.011 28.2141C32.0078 26.8578 31.4575 25.1924 31.4575 23.5039V19.0538C31.4575 15.117 28.9215 11.6887 25.2195 10.5164C25.4807 9.99455 25.5862 9.40586 25.519 8.80803C25.3624 7.41584 24.2381 6.2933 22.8456 6.13897C21.9825 6.04211 21.117 6.31809 20.4739 6.8936C19.8304 7.46963 19.4613 8.29528 19.4613 9.15836C19.4613 9.63086 19.5729 10.0967 19.7817 10.5161C16.0792 11.6882 13.5425 15.117 13.5425 19.0538V23.5039C13.5425 25.1924 12.9922 26.8578 11.989 28.2141C10.804 28.3742 9.8877 29.3924 9.8877 30.6204C9.8877 31.9593 10.977 33.0484 12.3159 33.0484H32.6839C34.0228 33.0484 35.1121 31.9593 35.1121 30.6204C35.1123 29.3924 34.1958 28.3742 33.011 28.2141ZM32.6841 32.1697H12.3159C11.4616 32.1697 10.7666 31.4747 10.7666 30.6206C10.7666 29.7663 11.4616 29.0712 12.3159 29.0712H14.0738C14.3165 29.0712 14.5132 28.8745 14.5132 28.6318C14.5132 28.389 14.3165 28.1923 14.0738 28.1923H13.0672C13.9449 26.795 14.4213 25.1597 14.4213 23.504V19.054C14.4213 15.32 16.9508 12.093 20.5726 11.2067C20.7181 11.1711 20.8355 11.0637 20.8839 10.9216C20.9322 10.7796 20.905 10.6228 20.8113 10.5056C20.5029 10.1195 20.3398 9.65372 20.3398 9.15854C20.3398 8.54506 20.6023 7.9583 21.0598 7.54873C21.5235 7.13372 22.1233 6.94387 22.7484 7.0126C23.7364 7.12211 24.5341 7.91858 24.6452 8.90629C24.7104 9.4869 24.548 10.0548 24.188 10.5056C24.0945 10.6228 24.0671 10.7796 24.1154 10.9216C24.1638 11.0637 24.2812 11.1711 24.4267 11.2067C28.0485 12.093 30.578 15.3198 30.578 19.054V23.504C30.578 25.1597 31.0544 26.795 31.9321 28.1923H31.0175C30.7747 28.1923 30.578 28.389 30.578 28.6318C30.578 28.8745 30.7747 29.0712 31.0175 29.0712H32.6835C33.5378 29.0712 34.2329 29.7663 34.2329 30.6206C34.2334 31.4747 33.5384 32.1697 32.6841 32.1697Z" fill="#846F75"/>
<path d="M22.5 7.5946C21.6378 7.5946 20.9362 8.29615 20.9362 9.15835C20.9362 10.0206 21.6376 10.7221 22.5 10.7221C23.3624 10.7221 24.0637 10.0207 24.0637 9.15835C24.0637 8.29597 23.3622 7.5946 22.5 7.5946ZM22.5 9.8432C22.1224 9.8432 21.8152 9.53611 21.8152 9.15835C21.8152 8.7806 22.1222 8.47351 22.5 8.47351C22.8778 8.47351 23.1848 8.78078 23.1848 9.15835C23.1848 9.53593 22.8776 9.8432 22.5 9.8432Z" fill="#846F75"/>
<path d="M26.4936 34.008C26.2508 34.008 26.0541 34.2047 26.0541 34.4475C26.0541 36.4071 24.4598 38.0014 22.5 38.0014C20.5402 38.0014 18.9459 36.4073 18.9459 34.4475C18.9459 34.2047 18.7492 34.008 18.5064 34.008C18.2637 34.008 18.067 34.2047 18.067 34.4475C18.067 36.8917 20.0556 38.8803 22.5 38.8803C24.9444 38.8803 26.933 36.8919 26.933 34.4475C26.933 34.2047 26.7363 34.008 26.4936 34.008Z" fill="#846F75"/>
<path d="M28.4033 29.071H16.5967C16.354 29.071 16.1573 28.8743 16.1573 28.6316C16.1573 28.3888 16.354 28.1921 16.5967 28.1921H28.4033C28.646 28.1921 28.8427 28.3888 28.8427 28.6316C28.8427 28.8743 28.646 29.071 28.4033 29.071Z" fill="#EBE7F2"/>
</svg>
