<svg width="45" height="45" viewBox="0 0 45 45" fill="none" xmlns="http://www.w3.org/2000/svg">
<g clip-path="url(#clip0_6_2452)">
<path d="M23.9666 30.4472H22.3141C22.3105 30.447 22.307 30.4465 22.3033 30.4465L22.3028 30.4472H11.4323C8.56058 30.4472 6.23254 32.7752 6.23254 35.6471V37.0901V38.2556V38.9961V40.3679V42.7151H29.1665V40.3679V38.9961V38.2556V37.0901V35.6471C29.1665 32.7754 26.8385 30.4472 23.9666 30.4472Z" fill="#FFEA92"/>
<path d="M27.9598 15.6399C27.938 15.6399 27.9171 15.6427 27.8953 15.6431V14.6884C27.8953 9.10808 23.3304 4.58435 17.6993 4.58435C12.0681 4.58435 7.50326 9.10808 7.50326 14.6884V15.6431C7.48164 15.6427 7.46055 15.6399 7.43875 15.6399C5.72084 15.6399 4.32812 17.02 4.32812 18.7226C4.32812 20.4251 5.72084 21.8053 7.43875 21.8053C7.5516 21.8053 7.6627 21.7986 7.77256 21.787C8.82496 26.2568 12.8683 29.5877 17.6995 29.5877C22.5306 29.5877 26.5739 26.2568 27.6262 21.7868C27.7359 21.7984 27.8471 21.8051 27.96 21.8051C29.6779 21.8051 31.0706 20.4251 31.0706 18.7224C31.0704 17.02 29.6777 15.6399 27.9598 15.6399Z" fill="#F9CFCF"/>
<path d="M12.6327 20.6205C11.954 20.6205 11.4017 20.0684 11.4017 19.3897V17.3383C11.4017 16.6596 11.9539 16.1075 12.6327 16.1075C13.3112 16.1075 13.8635 16.6596 13.8635 17.3383V19.3897C13.8635 20.0684 13.3114 20.6205 12.6327 20.6205Z" fill="#3762CC"/>
<path d="M22.718 20.6205C22.0393 20.6205 21.487 20.0684 21.487 19.3897V17.3383C21.487 16.6596 22.0391 16.1075 22.718 16.1075C23.3965 16.1075 23.9488 16.6596 23.9488 17.3383V19.3897C23.9488 20.0684 23.3965 20.6205 22.718 20.6205Z" fill="#3762CC"/>
<path d="M17.6995 29.9392C12.8725 29.9392 8.72178 26.7537 7.50291 22.156C7.48146 22.1565 7.46019 22.1567 7.4391 22.1567C5.53012 22.1567 3.97691 20.616 3.97691 18.7224C3.97691 16.9247 5.37666 15.4452 7.15205 15.3V14.6884C7.15205 8.92317 11.8836 4.23297 17.6996 4.23297C23.5157 4.23297 28.2472 8.92334 28.2472 14.6884V15.3C30.0224 15.4452 31.4223 16.9247 31.4223 18.7224C31.4223 20.616 29.8691 22.1567 27.9602 22.1567C27.9391 22.1567 27.9178 22.1565 27.8965 22.156C26.6773 26.7537 22.5266 29.9392 17.6995 29.9392ZM7.77309 21.4351C7.93445 21.4351 8.07736 21.546 8.11498 21.7062C9.15859 26.1397 13.0998 29.2361 17.6995 29.2361C22.2991 29.2361 26.2405 26.1397 27.2837 21.7062C27.3244 21.5337 27.4873 21.42 27.6633 21.437C27.767 21.4481 27.864 21.4536 27.9598 21.4536C29.4812 21.4536 30.7189 20.2284 30.7189 18.7224C30.7189 17.2171 29.4821 15.9922 27.9612 15.9915C27.934 15.9934 27.9188 15.9943 27.9037 15.9947C27.8014 15.9991 27.7172 15.9609 27.6497 15.8948C27.5822 15.8287 27.5437 15.738 27.5437 15.6433V14.6884C27.5437 9.31094 23.1276 4.9361 17.6993 4.9361C12.271 4.9361 7.85482 9.31112 7.85482 14.6884V15.6433C7.85482 15.738 7.81668 15.8287 7.74883 15.8948C7.68115 15.9611 7.59027 16.0045 7.49482 15.9947C7.47953 15.9943 7.46441 15.9934 7.44947 15.9924C7.44894 15.9924 7.44842 15.9924 7.44789 15.9924C5.91666 15.9924 4.67969 17.2171 4.67969 18.7224C4.67969 20.2284 5.91754 21.4536 7.43875 21.4536C7.53455 21.4536 7.63158 21.4483 7.73529 21.437C7.74812 21.4358 7.7606 21.4351 7.77309 21.4351Z" fill="#3762CC"/>
<path d="M17.9376 25.252H17.4613C17.1844 25.252 16.9418 25.2191 16.7198 25.1516C16.3521 25.0398 16.029 24.851 15.7855 24.6057C15.4758 24.2933 15.3051 23.8995 15.3051 23.4968C15.3051 23.3028 15.4626 23.1453 15.6567 23.1453C15.8508 23.1453 16.0083 23.3028 16.0083 23.4968C16.0083 23.7158 16.1039 23.928 16.2848 24.1105C16.4465 24.2736 16.6678 24.4009 16.9244 24.4791C17.0791 24.5262 17.2547 24.5489 17.4613 24.5489H17.9376C18.1442 24.5489 18.3198 24.526 18.4745 24.4791C18.7313 24.401 18.9524 24.2736 19.1143 24.1105C19.2952 23.928 19.3908 23.7158 19.3908 23.4968C19.3908 23.3028 19.5483 23.1453 19.7424 23.1453C19.9364 23.1453 20.0939 23.3028 20.0939 23.4968C20.0939 23.8995 19.9233 24.2931 19.6135 24.6057C19.3699 24.851 19.0468 25.04 18.6791 25.1516C18.4571 25.2193 18.2145 25.252 17.9376 25.252Z" fill="#3762CC"/>
<path d="M17.6995 29.5876C16.0334 29.5876 14.4612 29.1913 13.0729 28.4888V30.2546C13.0729 32.809 15.1438 34.8799 17.6982 34.8799C20.2527 34.8799 22.3236 32.809 22.3236 30.2546V28.4901C20.9358 29.1918 19.3645 29.5876 17.6995 29.5876Z" fill="#F9CFCF"/>
<path d="M14.8507 14.0009H4.67002V10.466C4.67002 4.9772 9.11957 0.527649 14.6085 0.527649H17.4674C18.9125 0.527649 20.0839 1.69906 20.0839 3.14415V8.76792C20.0839 11.6581 17.7409 14.0009 14.8507 14.0009Z" fill="#4671C6"/>
<path d="M30.5668 13.6509H24.6421C22.1246 13.6509 20.0839 11.6101 20.0839 9.09277V2.91898C20.0839 1.59833 21.1546 0.527649 22.4753 0.527649C26.9441 0.527649 30.567 4.15032 30.567 8.61939V13.6509H30.5668Z" fill="#4671C6"/>
<path d="M5.74176 14.0009V16.1411C6.23008 15.8252 6.81227 15.6399 7.4391 15.6399C7.4609 15.6399 7.48199 15.6427 7.50362 15.6431V14.6884C7.50362 14.4572 7.51293 14.2284 7.5284 14.0011H5.74176V14.0009Z" fill="#4671C6"/>
<path d="M27.8405 13.6509C27.8756 13.9921 27.8953 14.3379 27.8953 14.6882V15.6429C27.9169 15.6425 27.938 15.6397 27.9598 15.6397C28.5854 15.6397 29.1667 15.8245 29.6545 16.1395V13.6509H27.8405Z" fill="#4671C6"/>
<path d="M14.8507 14.3525H4.67002C4.47596 14.3525 4.31846 14.195 4.31846 14.0009V10.4661C4.31846 4.79228 8.93447 0.176086 14.6085 0.176086H17.4674C19.1041 0.176086 20.4355 1.50763 20.4355 3.14433V8.76792C20.4353 11.8473 17.9303 14.3525 14.8507 14.3525ZM5.02158 13.6494H14.8507C17.5425 13.6494 19.7324 11.4595 19.7324 8.76775V3.14433C19.7324 1.8954 18.7163 0.879211 17.4674 0.879211H14.6085C9.32225 0.879211 5.02158 5.17988 5.02158 10.4661V13.6494Z" fill="#3762CC"/>
<path d="M30.5668 14.0025H24.6421C21.9349 14.0025 19.7322 11.8 19.7322 9.09259V2.91898C19.7322 1.40656 20.9627 0.176086 22.4751 0.176086C27.1306 0.176086 30.9184 3.96365 30.9184 8.61921V13.6509C30.9184 13.8452 30.7611 14.0025 30.5668 14.0025ZM22.4751 0.879211C21.3504 0.879211 20.4353 1.79415 20.4353 2.91898V9.09277C20.4353 11.4124 22.3225 13.2996 24.6421 13.2996H30.2153V8.61921C30.2153 4.35142 26.7431 0.879211 22.4751 0.879211Z" fill="#3762CC"/>
<path d="M5.74176 16.4926C5.6841 16.4926 5.62627 16.4784 5.57371 16.4499C5.46051 16.3884 5.3902 16.2699 5.3902 16.1411V14.0009C5.3902 13.8069 5.5477 13.6494 5.74176 13.6494H7.52823C7.62561 13.6494 7.7186 13.6896 7.78504 13.761C7.85149 13.832 7.88559 13.9276 7.87891 14.0248C7.86274 14.2616 7.855 14.4785 7.855 14.6882V15.6431C7.855 15.7378 7.81686 15.8285 7.74901 15.8946C7.68133 15.9609 7.59344 16.0043 7.495 15.9944C7.47989 15.9941 7.46477 15.9932 7.44965 15.9922C7.44824 15.9922 7.44684 15.9922 7.44543 15.9922C6.90051 15.9922 6.38125 16.1458 5.93283 16.436C5.87483 16.4738 5.80838 16.4926 5.74176 16.4926ZM6.09332 14.3525V15.559C6.42977 15.4175 6.78643 15.33 7.15188 15.2999V14.6882C7.15188 14.5784 7.15381 14.4669 7.15785 14.3525H6.09332Z" fill="#3762CC"/>
<path d="M29.6547 16.491C29.5882 16.491 29.5218 16.4722 29.464 16.435C29.0145 16.1448 28.4945 15.9915 27.9598 15.9915C27.9341 15.9934 27.9192 15.9943 27.9039 15.9946C27.8016 15.999 27.7174 15.9609 27.6499 15.8948C27.5824 15.8287 27.5439 15.738 27.5439 15.6433V14.6884C27.5439 14.3655 27.526 14.0287 27.4908 13.6872C27.4804 13.5882 27.5128 13.4896 27.5794 13.4156C27.6462 13.3417 27.7409 13.2996 27.8404 13.2996H29.6545C29.8486 13.2996 30.0061 13.4571 30.0061 13.6511V16.1397C30.0061 16.2683 29.9358 16.3868 29.8227 16.4485C29.7703 16.4768 29.7123 16.491 29.6547 16.491ZM28.247 15.3001C28.6114 15.3302 28.9675 15.4174 29.3031 15.5582V14.0025H28.2233C28.2391 14.2352 28.247 14.4648 28.247 14.6882V15.3001Z" fill="#3762CC"/>
<path d="M13.0739 38.9958C13.5166 38.9202 13.9321 38.7237 14.284 38.4217C14.3158 38.3945 14.3058 38.343 14.2664 38.3291C13.8295 38.1744 13.3712 38.1408 12.9312 38.2299C12.709 38.2679 12.4937 38.3363 12.2898 38.4331C12.5496 38.2957 12.7862 38.119 12.9912 37.9081C13.336 37.5729 13.59 37.1533 13.7296 36.6852C13.7417 36.6446 13.7038 36.6066 13.6632 36.6187C13.1951 36.7583 12.7755 37.0123 12.4403 37.3572C12.271 37.5217 12.1237 37.7066 12.001 37.9076C12.1038 37.5655 12.1536 37.2118 12.1481 36.856C12.1578 36.2232 11.9927 35.5966 11.6654 35.0309C11.6361 34.9801 11.5622 34.9801 11.5329 35.0309C11.2056 35.5964 11.0403 36.223 11.0502 36.856C11.0446 37.2187 11.0968 37.5794 11.2036 37.9276C11.0785 37.7188 10.9271 37.527 10.7522 37.357C10.417 37.0121 9.99742 36.7581 9.52932 36.6186C9.48871 36.6064 9.45074 36.6444 9.46287 36.685C9.60244 37.1531 9.85645 37.5727 10.2013 37.9079C10.4063 38.1188 10.6429 38.2955 10.9027 38.433C10.6988 38.3361 10.4835 38.2676 10.2613 38.2298C9.82129 38.1406 9.36285 38.1744 8.92603 38.3289C8.88666 38.3428 8.87664 38.3943 8.90846 38.4215C9.26037 38.7234 9.67592 38.9201 10.1185 38.9956C10.3827 39.0491 10.6534 39.058 10.9222 39.0234C10.7804 39.0419 10.6413 39.0767 10.5077 39.1277C10.1915 39.2373 9.91006 39.4326 9.68822 39.6975C9.66818 39.7214 9.68137 39.758 9.71213 39.7635C10.0523 39.8239 10.3935 39.7925 10.7062 39.6733C10.9654 39.5833 11.2013 39.4358 11.4003 39.2395L11.4944 39.1725L11.3694 40.6476C11.3641 40.7099 11.4132 40.7631 11.4756 40.7631H11.5993H11.7231C11.7855 40.7631 11.8345 40.7099 11.8292 40.6476L11.7046 39.1762L11.7897 39.2395H11.7899C11.9887 39.4358 12.2246 39.5835 12.4838 39.6733C12.7966 39.7925 13.1378 39.8239 13.4779 39.7635C13.5087 39.758 13.522 39.7216 13.5018 39.6975C13.28 39.4326 12.9985 39.2373 12.6823 39.1277C12.5475 39.0762 12.4072 39.0415 12.2643 39.0231V39.0227C12.5348 39.0586 12.8076 39.0496 13.0739 38.9958Z" fill="#6BDDDD"/>
<path d="M17.7863 38.9826C17.6467 38.9826 17.5412 39.028 17.4729 39.1173C17.4184 39.1885 17.3725 39.2799 17.3379 39.3855C17.2697 39.5722 17.1684 39.7146 17.0371 39.8088C16.9065 39.9025 16.7425 39.95 16.5497 39.95C16.3714 39.95 16.2148 39.9078 16.084 39.8245C15.9545 39.742 15.852 39.6135 15.7797 39.4427C15.7045 39.2646 15.6664 39.0355 15.6664 38.7619C15.6664 38.3549 15.7514 38.0397 15.9193 37.8248C16.083 37.6151 16.2976 37.5129 16.5752 37.5129C16.7469 37.5129 16.8917 37.5528 17.0058 37.6312C17.1238 37.7124 17.2291 37.8388 17.3185 38.0071C17.3837 38.1301 17.4433 38.2164 17.5008 38.2707C17.5694 38.3356 17.6671 38.3686 17.7914 38.3686C17.9085 38.3686 18.0092 38.3236 18.0909 38.2352C18.1704 38.1491 18.2108 38.0478 18.2108 37.9341C18.2108 37.7548 18.1408 37.5653 18.0032 37.3707C17.8684 37.1804 17.6734 37.0192 17.4236 36.8917C17.1742 36.7643 16.8872 36.6998 16.5701 36.6998C16.3104 36.6998 16.0619 36.7467 15.8318 36.8395C15.6004 36.9329 15.3957 37.0707 15.2236 37.2491C15.0513 37.4275 14.9175 37.6446 14.8256 37.8946C14.7344 38.1422 14.6881 38.4254 14.6881 38.7364C14.6881 38.9276 14.7064 39.111 14.7426 39.2816C14.7788 39.4532 14.8342 39.6172 14.907 39.7693C14.9799 39.9213 15.0694 40.0609 15.1736 40.1848C15.2905 40.3216 15.4211 40.4337 15.5618 40.5181C15.7019 40.6023 15.8597 40.665 16.0308 40.7044C16.1988 40.7433 16.3871 40.7629 16.5906 40.7629C16.8627 40.7629 17.1058 40.7183 17.3131 40.6301C17.5205 40.5416 17.694 40.4244 17.8288 40.2813C17.9622 40.1396 18.0619 39.9923 18.125 39.8434C18.1888 39.693 18.221 39.5495 18.221 39.417C18.221 39.2943 18.1776 39.1901 18.0921 39.1067C18.0072 39.0245 17.9042 38.9826 17.7863 38.9826Z" fill="#6BDDDD"/>
<path d="M21.7176 38.6049C21.995 38.414 22.1355 38.1457 22.1355 37.8049C22.1355 37.6846 22.1154 37.5686 22.0755 37.4596C22.036 37.3512 21.9776 37.2506 21.902 37.1608C21.8268 37.0715 21.7391 36.9968 21.642 36.939C21.5276 36.8695 21.397 36.8223 21.2539 36.798C21.1182 36.7752 20.9567 36.7635 20.774 36.7635H19.568C19.3785 36.7635 19.2356 36.8103 19.1431 36.9028C19.0509 36.9952 19.0039 37.1399 19.0039 37.3327V40.1308C19.0039 40.3194 19.0494 40.4625 19.1389 40.5564C19.2298 40.6517 19.3743 40.7 19.568 40.7H20.7055C20.9057 40.7 21.0838 40.69 21.2349 40.6699C21.391 40.6494 21.5317 40.6132 21.6549 40.5615C21.8549 40.4738 22.0159 40.3358 22.1337 40.1517C22.2511 39.9682 22.3105 39.7596 22.3105 39.5318C22.3105 39.1035 22.1112 38.7928 21.7176 38.6049ZM21.1319 38.0916C21.0906 38.1679 21.033 38.218 20.9561 38.2447C20.8654 38.2761 20.7308 38.292 20.5557 38.292H19.9721V37.5435H20.4771C20.7345 37.5435 20.9252 37.5713 21.0442 37.6263C21.1036 37.6539 21.1827 37.7124 21.1827 37.9037C21.1826 37.9728 21.1667 38.033 21.1319 38.0916ZM19.9719 39.0468H20.6496C20.8899 39.0468 21.0695 39.0837 21.1834 39.1568C21.2836 39.221 21.3321 39.3252 21.3321 39.4755C21.3321 39.6661 21.2641 39.9195 20.6749 39.9195H19.9719V39.0468Z" fill="#6BDDDD"/>
<path d="M25.856 37.1276C25.695 36.9868 25.5129 36.8892 25.3146 36.8379C25.1239 36.7885 24.8936 36.7634 24.6303 36.7634H23.6477C23.4566 36.7634 23.3123 36.8107 23.2192 36.9038C23.126 36.997 23.0787 37.1413 23.0787 37.3324V40.0619C23.0787 40.1932 23.0903 40.2987 23.1144 40.3841C23.143 40.4862 23.2051 40.5666 23.2984 40.6223C23.3856 40.6743 23.5048 40.6996 23.6632 40.6996H24.6458C24.8218 40.6996 24.9826 40.688 25.1237 40.6654C25.2688 40.642 25.4066 40.6007 25.5333 40.5428C25.6611 40.4845 25.7805 40.4059 25.8889 40.3083C26.0239 40.1841 26.1362 40.0412 26.2226 39.8837C26.3083 39.7272 26.3727 39.5493 26.4138 39.3553C26.4541 39.1645 26.4744 38.9513 26.4744 38.7212C26.4739 38.0149 26.2658 37.4783 25.856 37.1276ZM24.0466 37.5741H24.4371C24.6556 37.5741 24.8432 37.5976 24.9947 37.6444C25.1327 37.6867 25.2471 37.7855 25.3447 37.9467C25.4449 38.1118 25.4955 38.3707 25.4955 38.7165C25.4955 39.2023 25.3809 39.5456 25.1536 39.7381C25.1081 39.778 25.0533 39.8097 24.9903 39.832C24.9227 39.8561 24.8571 39.8712 24.7952 39.8772C24.7279 39.8835 24.6321 39.8868 24.5108 39.8868H24.0466V37.5741Z" fill="#6BDDDD"/>
<path d="M29.1664 43.0667H6.23254C6.03847 43.0667 5.88097 42.9092 5.88097 42.7152V35.6472C5.88097 32.5861 8.37127 30.0957 11.4323 30.0957H12.7213V28.4888C12.7213 28.3667 12.7848 28.2533 12.8888 28.1893C12.9929 28.1255 13.1226 28.1197 13.2316 28.1752C14.6231 28.8792 16.1264 29.2361 17.6995 29.2361C19.2718 29.2361 20.7742 28.8796 22.1648 28.1765C22.2736 28.1215 22.4035 28.1269 22.5076 28.1907C22.6117 28.2547 22.6749 28.3683 22.6749 28.4902V30.0957H23.9666C27.0276 30.0957 29.5179 32.5861 29.5179 35.6472V42.7152C29.5179 42.9092 29.3606 43.0667 29.1664 43.0667ZM6.5841 42.3636H28.815V35.6472C28.815 32.9737 26.64 30.7988 23.9668 30.7988H22.3188C22.223 30.7988 22.1314 30.7596 22.0652 30.6907C21.9989 30.6214 21.9636 30.5283 21.9676 30.4326C21.9701 30.3736 21.9722 30.3143 21.9722 30.2546V29.0454C20.6273 29.6388 19.1927 29.9392 17.6996 29.9392C16.2055 29.9392 14.7701 29.6383 13.4246 29.0441V30.2546C13.4246 30.3145 13.4269 30.3739 13.4292 30.433C13.4331 30.5288 13.3977 30.6218 13.3315 30.6908C13.2652 30.7599 13.1736 30.7988 13.078 30.7988H11.4325C8.75922 30.7988 6.58427 32.9737 6.58427 35.6472V42.3636H6.5841Z" fill="#3762CC"/>
<path d="M35.6323 39.1545C40.7291 39.1545 44.8608 35.0228 44.8608 29.926C44.8608 24.8293 40.7291 20.6975 35.6323 20.6975C30.5355 20.6975 26.4038 24.8293 26.4038 29.926C26.4038 35.0228 30.5355 39.1545 35.6323 39.1545Z" fill="#6BDDDD"/>
<path d="M35.6323 36.7815C39.4185 36.7815 42.4878 33.7122 42.4878 29.926C42.4878 26.1399 39.4185 23.0706 35.6323 23.0706C31.8461 23.0706 28.7768 26.1399 28.7768 29.926C28.7768 33.7122 31.8461 36.7815 35.6323 36.7815Z" fill="#FFEA92"/>
<path d="M35.6323 39.5061C30.3497 39.5061 26.0522 35.2086 26.0522 29.926C26.0522 24.6434 30.3497 20.3459 35.6323 20.3459C40.9149 20.3459 45.2124 24.6434 45.2124 29.926C45.2124 35.2086 40.9147 39.5061 35.6323 39.5061ZM35.6323 21.0491C30.7375 21.0491 26.7554 25.0312 26.7554 29.926C26.7554 34.8208 30.7375 38.803 35.6323 38.803C40.5271 38.803 44.5093 34.8208 44.5093 29.926C44.5093 25.0312 40.5269 21.0491 35.6323 21.0491Z" fill="#3762CC"/>
<path d="M40.0228 24.9746L35.1841 32.0027L32.9286 29.0828C32.7254 28.8198 32.4294 28.6324 32.0987 28.5982C31.7911 28.5662 31.4958 28.6505 31.2548 28.8367C31.0066 29.0283 30.8481 29.3053 30.8082 29.6163C30.7683 29.9274 30.8518 30.2354 31.0435 30.4836L33.6839 33.902C34.045 34.3696 34.6133 34.6487 35.2044 34.6487L35.2563 34.648C35.8675 34.6313 36.4391 34.3209 36.7858 33.8175L41.9571 26.3063C42.3315 25.7625 42.184 25.0168 41.6307 24.6566C41.097 24.3093 40.3838 24.4503 40.0228 24.9746Z" fill="#F9A7A7"/>
</g>
<defs>
<clipPath id="clip0_6_2452">
<rect width="45" height="45" fill="white"/>
</clipPath>
</defs>
</svg>
