<svg width="42" height="44" viewBox="0 0 42 44" fill="none" xmlns="http://www.w3.org/2000/svg">
<path d="M20.9666 30.4472H19.3141C19.3105 30.447 19.307 30.4465 19.3033 30.4465L19.3028 30.4472H8.43232C5.56058 30.4472 3.23254 32.7752 3.23254 35.6471V37.0901V38.2556V38.9961V40.3679V42.7151H26.1665V40.3679V38.9961V38.2556V37.0901V35.6471C26.1665 32.7754 23.8385 30.4472 20.9666 30.4472Z" fill="#BDBDBD"/>
<path d="M24.9598 15.6399C24.938 15.6399 24.9171 15.6427 24.8953 15.6431V14.6884C24.8953 9.10808 20.3304 4.58435 14.6993 4.58435C9.06813 4.58435 4.50326 9.10808 4.50326 14.6884V15.6431C4.48164 15.6427 4.46055 15.6399 4.43875 15.6399C2.72084 15.6399 1.32812 17.02 1.32812 18.7226C1.32812 20.4251 2.72084 21.8053 4.43875 21.8053C4.5516 21.8053 4.6627 21.7986 4.77256 21.787C5.82496 26.2568 9.86828 29.5877 14.6995 29.5877C19.5306 29.5877 23.5739 26.2568 24.6262 21.7868C24.7359 21.7984 24.8471 21.8051 24.96 21.8051C26.6779 21.8051 28.0706 20.4251 28.0706 18.7224C28.0704 17.02 26.6777 15.6399 24.9598 15.6399Z" fill="#BDBDBD"/>
<path d="M9.63273 20.6205C8.95404 20.6205 8.40173 20.0684 8.40173 19.3897V17.3383C8.40173 16.6596 8.95386 16.1075 9.63273 16.1075C10.3112 16.1075 10.8635 16.6596 10.8635 17.3383V19.3897C10.8635 20.0684 10.3114 20.6205 9.63273 20.6205Z" fill="#DFDFDF"/>
<path d="M19.718 20.6205C19.0393 20.6205 18.487 20.0684 18.487 19.3897V17.3383C18.487 16.6596 19.0391 16.1075 19.718 16.1075C20.3965 16.1075 20.9488 16.6596 20.9488 17.3383V19.3897C20.9488 20.0684 20.3965 20.6205 19.718 20.6205Z" fill="#DFDFDF"/>
<path d="M14.6995 29.9392C9.8725 29.9392 5.72178 26.7537 4.50291 22.156C4.48146 22.1565 4.46019 22.1567 4.4391 22.1567C2.53012 22.1567 0.976913 20.616 0.976913 18.7224C0.976913 16.9247 2.37666 15.4452 4.15205 15.3V14.6884C4.15205 8.92317 8.88355 4.23297 14.6996 4.23297C20.5157 4.23297 25.2472 8.92334 25.2472 14.6884V15.3C27.0224 15.4452 28.4223 16.9247 28.4223 18.7224C28.4223 20.616 26.8691 22.1567 24.9602 22.1567C24.9391 22.1567 24.9178 22.1565 24.8965 22.156C23.6773 26.7537 19.5266 29.9392 14.6995 29.9392ZM4.77309 21.4351C4.93445 21.4351 5.07736 21.546 5.11498 21.7062C6.15859 26.1397 10.0998 29.2361 14.6995 29.2361C19.2991 29.2361 23.2405 26.1397 24.2837 21.7062C24.3244 21.5337 24.4873 21.42 24.6633 21.437C24.767 21.4481 24.864 21.4536 24.9598 21.4536C26.4812 21.4536 27.7189 20.2284 27.7189 18.7224C27.7189 17.2171 26.4821 15.9922 24.9612 15.9915C24.934 15.9934 24.9188 15.9943 24.9037 15.9947C24.8014 15.9991 24.7172 15.9609 24.6497 15.8948C24.5822 15.8287 24.5437 15.738 24.5437 15.6433V14.6884C24.5437 9.31094 20.1276 4.9361 14.6993 4.9361C9.27098 4.9361 4.85482 9.31112 4.85482 14.6884V15.6433C4.85482 15.738 4.81668 15.8287 4.74883 15.8948C4.68115 15.9611 4.59027 16.0045 4.49482 15.9947C4.47953 15.9943 4.46441 15.9934 4.44947 15.9924C4.44894 15.9924 4.44842 15.9924 4.44789 15.9924C2.91666 15.9924 1.67969 17.2171 1.67969 18.7224C1.67969 20.2284 2.91754 21.4536 4.43875 21.4536C4.53455 21.4536 4.63158 21.4483 4.73529 21.437C4.74812 21.4358 4.7606 21.4351 4.77309 21.4351Z" fill="#DFDFDF"/>
<path d="M14.9376 25.252H14.4613C14.1844 25.252 13.9418 25.2191 13.7198 25.1516C13.3521 25.0398 13.029 24.851 12.7855 24.6057C12.4758 24.2933 12.3051 23.8995 12.3051 23.4968C12.3051 23.3028 12.4626 23.1453 12.6567 23.1453C12.8508 23.1453 13.0083 23.3028 13.0083 23.4968C13.0083 23.7158 13.1039 23.928 13.2848 24.1105C13.4465 24.2736 13.6678 24.4009 13.9244 24.4791C14.0791 24.5262 14.2547 24.5489 14.4613 24.5489H14.9376C15.1442 24.5489 15.3198 24.526 15.4745 24.4791C15.7313 24.401 15.9524 24.2736 16.1143 24.1105C16.2952 23.928 16.3908 23.7158 16.3908 23.4968C16.3908 23.3028 16.5483 23.1453 16.7424 23.1453C16.9364 23.1453 17.0939 23.3028 17.0939 23.4968C17.0939 23.8995 16.9233 24.2931 16.6135 24.6057C16.3699 24.851 16.0468 25.04 15.6791 25.1516C15.4571 25.2193 15.2145 25.252 14.9376 25.252Z" fill="#DFDFDF"/>
<path d="M14.6995 29.5876C13.0334 29.5876 11.4612 29.1913 10.0729 28.4888V30.2546C10.0729 32.809 12.1438 34.8799 14.6982 34.8799C17.2527 34.8799 19.3236 32.809 19.3236 30.2546V28.4901C17.9358 29.1918 16.3645 29.5876 14.6995 29.5876Z" fill="#BDBDBD"/>
<path d="M11.8507 14.0009H1.67002V10.466C1.67002 4.9772 6.11957 0.527649 11.6085 0.527649H14.4674C15.9125 0.527649 17.0839 1.69906 17.0839 3.14415V8.76792C17.0839 11.6581 14.7409 14.0009 11.8507 14.0009Z" fill="#BDBDBD"/>
<path d="M27.5668 13.6509H21.6421C19.1246 13.6509 17.0839 11.6101 17.0839 9.09277V2.91898C17.0839 1.59833 18.1546 0.527649 19.4753 0.527649C23.9441 0.527649 27.567 4.15032 27.567 8.61939V13.6509H27.5668Z" fill="#BDBDBD"/>
<path d="M2.74176 14.0009V16.1411C3.23008 15.8252 3.81227 15.6399 4.4391 15.6399C4.4609 15.6399 4.48199 15.6427 4.50362 15.6431V14.6884C4.50362 14.4572 4.51293 14.2284 4.5284 14.0011H2.74176V14.0009Z" fill="#BDBDBD"/>
<path d="M24.8405 13.6509C24.8756 13.9921 24.8953 14.3379 24.8953 14.6882V15.6429C24.9169 15.6425 24.938 15.6397 24.9598 15.6397C25.5854 15.6397 26.1667 15.8245 26.6545 16.1395V13.6509H24.8405Z" fill="#BDBDBD"/>
<path d="M11.8507 14.3525H1.67002C1.47596 14.3525 1.31846 14.195 1.31846 14.0009V10.4661C1.31846 4.79228 5.93447 0.176086 11.6085 0.176086H14.4674C16.1041 0.176086 17.4355 1.50763 17.4355 3.14433V8.76792C17.4353 11.8473 14.9303 14.3525 11.8507 14.3525ZM2.02158 13.6494H11.8507C14.5425 13.6494 16.7324 11.4595 16.7324 8.76775V3.14433C16.7324 1.8954 15.7163 0.879211 14.4674 0.879211H11.6085C6.32225 0.879211 2.02158 5.17988 2.02158 10.4661V13.6494Z" fill="#DFDFDF"/>
<path d="M27.5668 14.0025H21.6421C18.9349 14.0025 16.7322 11.8 16.7322 9.09259V2.91898C16.7322 1.40656 17.9627 0.176086 19.4751 0.176086C24.1306 0.176086 27.9184 3.96365 27.9184 8.61921V13.6509C27.9184 13.8452 27.7611 14.0025 27.5668 14.0025ZM19.4751 0.879211C18.3504 0.879211 17.4353 1.79415 17.4353 2.91898V9.09277C17.4353 11.4124 19.3225 13.2996 21.6421 13.2996H27.2153V8.61921C27.2153 4.35142 23.7431 0.879211 19.4751 0.879211Z" fill="#DFDFDF"/>
<path d="M2.74176 16.4926C2.6841 16.4926 2.62627 16.4784 2.57371 16.4499C2.46051 16.3884 2.3902 16.2699 2.3902 16.1411V14.0009C2.3902 13.8069 2.5477 13.6494 2.74176 13.6494H4.52823C4.62561 13.6494 4.7186 13.6896 4.78504 13.761C4.85149 13.832 4.88559 13.9276 4.87891 14.0248C4.86274 14.2616 4.855 14.4785 4.855 14.6882V15.6431C4.855 15.7378 4.81686 15.8285 4.74901 15.8946C4.68133 15.9609 4.59344 16.0043 4.495 15.9944C4.47989 15.9941 4.46477 15.9932 4.44965 15.9922C4.44824 15.9922 4.44684 15.9922 4.44543 15.9922C3.90051 15.9922 3.38125 16.1458 2.93283 16.436C2.87483 16.4738 2.80838 16.4926 2.74176 16.4926ZM3.09332 14.3525V15.559C3.42977 15.4175 3.78643 15.33 4.15188 15.2999V14.6882C4.15188 14.5784 4.15381 14.4669 4.15785 14.3525H3.09332Z" fill="#DFDFDF"/>
<path d="M26.6547 16.491C26.5882 16.491 26.5218 16.4722 26.464 16.435C26.0145 16.1448 25.4945 15.9915 24.9598 15.9915C24.9341 15.9934 24.9192 15.9943 24.9039 15.9946C24.8016 15.999 24.7174 15.9609 24.6499 15.8948C24.5824 15.8287 24.5439 15.738 24.5439 15.6433V14.6884C24.5439 14.3655 24.526 14.0287 24.4908 13.6872C24.4804 13.5882 24.5128 13.4896 24.5794 13.4156C24.6462 13.3417 24.7409 13.2996 24.8404 13.2996H26.6545C26.8486 13.2996 27.0061 13.4571 27.0061 13.6511V16.1397C27.0061 16.2683 26.9358 16.3868 26.8227 16.4485C26.7703 16.4768 26.7123 16.491 26.6547 16.491ZM25.247 15.3001C25.6114 15.3302 25.9675 15.4174 26.3031 15.5582V14.0025H25.2233C25.2391 14.2352 25.247 14.4648 25.247 14.6882V15.3001Z" fill="#DFDFDF"/>
<path d="M10.0739 38.9958C10.5166 38.9202 10.9321 38.7237 11.284 38.4217C11.3158 38.3945 11.3058 38.343 11.2664 38.3291C10.8295 38.1744 10.3712 38.1408 9.93121 38.2299C9.70902 38.2679 9.49369 38.3363 9.28978 38.4331C9.54959 38.2957 9.78619 38.119 9.99115 37.9081C10.336 37.5729 10.59 37.1533 10.7296 36.6852C10.7417 36.6446 10.7038 36.6066 10.6632 36.6187C10.1951 36.7583 9.77547 37.0123 9.44025 37.3572C9.27098 37.5217 9.12367 37.7066 9.00098 37.9076C9.10381 37.5655 9.15355 37.2118 9.1481 36.856C9.15777 36.2232 8.99271 35.5966 8.66541 35.0309C8.63605 34.9801 8.56223 34.9801 8.53287 35.0309C8.20557 35.5964 8.04033 36.223 8.05018 36.856C8.04455 37.2187 8.09676 37.5794 8.20363 37.9276C8.07848 37.7188 7.92713 37.527 7.75223 37.357C7.41701 37.0121 6.99742 36.7581 6.52932 36.6186C6.48871 36.6064 6.45074 36.6444 6.46287 36.685C6.60244 37.1531 6.85645 37.5727 7.20133 37.9079C7.40629 38.1188 7.64289 38.2955 7.90269 38.433C7.69879 38.3361 7.48346 38.2676 7.26127 38.2298C6.82129 38.1406 6.36285 38.1744 5.92603 38.3289C5.88666 38.3428 5.87664 38.3943 5.90846 38.4215C6.26037 38.7234 6.67592 38.9201 7.11853 38.9956C7.38273 39.0491 7.65344 39.058 7.92221 39.0234C7.78035 39.0419 7.64131 39.0767 7.50771 39.1277C7.19148 39.2373 6.91006 39.4326 6.68822 39.6975C6.66818 39.7214 6.68137 39.758 6.71213 39.7635C7.05227 39.8239 7.39346 39.7925 7.70617 39.6733C7.96545 39.5833 8.20135 39.4358 8.40033 39.2395L8.49437 39.1725L8.36939 40.6476C8.36412 40.7099 8.41316 40.7631 8.47557 40.7631H8.59932H8.72307C8.78547 40.7631 8.83451 40.7099 8.82924 40.6476L8.70461 39.1762L8.78969 39.2395H8.78986C8.98867 39.4358 9.22457 39.5835 9.48385 39.6733C9.79656 39.7925 10.1378 39.8239 10.4779 39.7635C10.5087 39.758 10.522 39.7216 10.5018 39.6975C10.28 39.4326 9.99853 39.2373 9.6823 39.1277C9.54748 39.0762 9.40721 39.0415 9.2643 39.0231V39.0227C9.53482 39.0586 9.80764 39.0496 10.0739 38.9958Z" fill="#DFDFDF"/>
<path d="M14.7863 38.9826C14.6467 38.9826 14.5412 39.028 14.4729 39.1173C14.4184 39.1885 14.3725 39.2799 14.3379 39.3855C14.2697 39.5722 14.1684 39.7146 14.0371 39.8088C13.9065 39.9025 13.7425 39.95 13.5497 39.95C13.3714 39.95 13.2148 39.9078 13.084 39.8245C12.9545 39.742 12.852 39.6135 12.7797 39.4427C12.7045 39.2646 12.6664 39.0355 12.6664 38.7619C12.6664 38.3549 12.7514 38.0397 12.9193 37.8248C13.083 37.6151 13.2976 37.5129 13.5752 37.5129C13.7469 37.5129 13.8917 37.5528 14.0058 37.6312C14.1238 37.7124 14.2291 37.8388 14.3185 38.0071C14.3837 38.1301 14.4433 38.2164 14.5008 38.2707C14.5694 38.3356 14.6671 38.3686 14.7914 38.3686C14.9085 38.3686 15.0092 38.3236 15.0909 38.2352C15.1704 38.1491 15.2108 38.0478 15.2108 37.9341C15.2108 37.7548 15.1408 37.5653 15.0032 37.3707C14.8684 37.1804 14.6734 37.0192 14.4236 36.8917C14.1742 36.7643 13.8872 36.6998 13.5701 36.6998C13.3104 36.6998 13.0619 36.7467 12.8318 36.8395C12.6004 36.9329 12.3957 37.0707 12.2236 37.2491C12.0513 37.4275 11.9175 37.6446 11.8256 37.8946C11.7344 38.1422 11.6881 38.4254 11.6881 38.7364C11.6881 38.9276 11.7064 39.111 11.7426 39.2816C11.7788 39.4532 11.8342 39.6172 11.907 39.7693C11.9799 39.9213 12.0694 40.0609 12.1736 40.1848C12.2905 40.3216 12.4211 40.4337 12.5618 40.5181C12.7019 40.6023 12.8597 40.665 13.0308 40.7044C13.1988 40.7433 13.3871 40.7629 13.5906 40.7629C13.8627 40.7629 14.1058 40.7183 14.3131 40.6301C14.5205 40.5416 14.694 40.4244 14.8288 40.2813C14.9622 40.1396 15.0619 39.9923 15.125 39.8434C15.1888 39.693 15.221 39.5495 15.221 39.417C15.221 39.2943 15.1776 39.1901 15.0921 39.1067C15.0072 39.0245 14.9042 38.9826 14.7863 38.9826Z" fill="#DFDFDF"/>
<path d="M18.7176 38.6049C18.995 38.414 19.1355 38.1457 19.1355 37.8049C19.1355 37.6846 19.1154 37.5686 19.0755 37.4596C19.036 37.3512 18.9776 37.2506 18.902 37.1608C18.8268 37.0715 18.7391 36.9968 18.642 36.939C18.5276 36.8695 18.397 36.8223 18.2539 36.798C18.1182 36.7752 17.9567 36.7635 17.774 36.7635H16.568C16.3785 36.7635 16.2356 36.8103 16.1431 36.9028C16.0509 36.9952 16.0039 37.1399 16.0039 37.3327V40.1308C16.0039 40.3194 16.0494 40.4625 16.1389 40.5564C16.2298 40.6517 16.3743 40.7 16.568 40.7H17.7055C17.9057 40.7 18.0838 40.69 18.2349 40.6699C18.391 40.6494 18.5317 40.6132 18.6549 40.5615C18.8549 40.4738 19.0159 40.3358 19.1337 40.1517C19.2511 39.9682 19.3105 39.7596 19.3105 39.5318C19.3105 39.1035 19.1112 38.7928 18.7176 38.6049ZM18.1319 38.0916C18.0906 38.1679 18.033 38.218 17.9561 38.2447C17.8654 38.2761 17.7308 38.292 17.5557 38.292H16.9721V37.5435H17.4771C17.7345 37.5435 17.9252 37.5713 18.0442 37.6263C18.1036 37.6539 18.1827 37.7124 18.1827 37.9037C18.1826 37.9728 18.1667 38.033 18.1319 38.0916ZM16.9719 39.0468H17.6496C17.8899 39.0468 18.0695 39.0837 18.1834 39.1568C18.2836 39.221 18.3321 39.3252 18.3321 39.4755C18.3321 39.6661 18.2641 39.9195 17.6749 39.9195H16.9719V39.0468Z" fill="#DFDFDF"/>
<path d="M22.856 37.1276C22.695 36.9868 22.5129 36.8892 22.3146 36.8379C22.1239 36.7885 21.8936 36.7634 21.6303 36.7634H20.6477C20.4566 36.7634 20.3123 36.8107 20.2192 36.9038C20.126 36.997 20.0787 37.1413 20.0787 37.3324V40.0619C20.0787 40.1932 20.0903 40.2987 20.1144 40.3841C20.143 40.4862 20.2051 40.5666 20.2984 40.6223C20.3856 40.6743 20.5048 40.6996 20.6632 40.6996H21.6458C21.8218 40.6996 21.9826 40.688 22.1237 40.6654C22.2688 40.642 22.4066 40.6007 22.5333 40.5428C22.6611 40.4845 22.7805 40.4059 22.8889 40.3083C23.0239 40.1841 23.1362 40.0412 23.2226 39.8837C23.3083 39.7272 23.3727 39.5493 23.4138 39.3553C23.4541 39.1645 23.4744 38.9513 23.4744 38.7212C23.4739 38.0149 23.2658 37.4783 22.856 37.1276ZM21.0466 37.5741H21.4371C21.6556 37.5741 21.8432 37.5976 21.9947 37.6444C22.1327 37.6867 22.2471 37.7855 22.3447 37.9467C22.4449 38.1118 22.4955 38.3707 22.4955 38.7165C22.4955 39.2023 22.3809 39.5456 22.1536 39.7381C22.1081 39.778 22.0533 39.8097 21.9903 39.832C21.9227 39.8561 21.8571 39.8712 21.7952 39.8772C21.7279 39.8835 21.6321 39.8868 21.5108 39.8868H21.0466V37.5741Z" fill="#DFDFDF"/>
<path d="M26.1664 43.0667H3.23254C3.03847 43.0667 2.88097 42.9092 2.88097 42.7152V35.6472C2.88097 32.5861 5.37127 30.0957 8.43232 30.0957H9.72133V28.4888C9.72133 28.3667 9.78478 28.2533 9.88885 28.1893C9.99291 28.1255 10.1226 28.1197 10.2316 28.1752C11.6231 28.8792 13.1264 29.2361 14.6995 29.2361C16.2718 29.2361 17.7742 28.8796 19.1648 28.1765C19.2736 28.1215 19.4035 28.1269 19.5076 28.1907C19.6117 28.2547 19.6749 28.3683 19.6749 28.4902V30.0957H20.9666C24.0276 30.0957 26.5179 32.5861 26.5179 35.6472V42.7152C26.5179 42.9092 26.3606 43.0667 26.1664 43.0667ZM3.5841 42.3636H25.815V35.6472C25.815 32.9737 23.64 30.7988 20.9668 30.7988H19.3188C19.223 30.7988 19.1314 30.7596 19.0652 30.6907C18.9989 30.6214 18.9636 30.5283 18.9676 30.4326C18.9701 30.3736 18.9722 30.3143 18.9722 30.2546V29.0454C17.6273 29.6388 16.1927 29.9392 14.6996 29.9392C13.2055 29.9392 11.7701 29.6383 10.4246 29.0441V30.2546C10.4246 30.3145 10.4269 30.3739 10.4292 30.433C10.4331 30.5288 10.3977 30.6218 10.3315 30.6908C10.2652 30.7599 10.1736 30.7988 10.078 30.7988H8.4325C5.75922 30.7988 3.58427 32.9737 3.58427 35.6472V42.3636H3.5841Z" fill="#DFDFDF"/>
<path d="M32.6323 39.1545C37.7291 39.1545 41.8608 35.0228 41.8608 29.926C41.8608 24.8293 37.7291 20.6975 32.6323 20.6975C27.5355 20.6975 23.4038 24.8293 23.4038 29.926C23.4038 35.0228 27.5355 39.1545 32.6323 39.1545Z" fill="#DFDFDF"/>
<path d="M32.6323 36.7815C36.4185 36.7815 39.4878 33.7122 39.4878 29.926C39.4878 26.1399 36.4185 23.0706 32.6323 23.0706C28.8461 23.0706 25.7768 26.1399 25.7768 29.926C25.7768 33.7122 28.8461 36.7815 32.6323 36.7815Z" fill="#BDBDBD"/>
<path d="M32.6323 39.5061C27.3497 39.5061 23.0522 35.2086 23.0522 29.926C23.0522 24.6434 27.3497 20.3459 32.6323 20.3459C37.9149 20.3459 42.2124 24.6434 42.2124 29.926C42.2124 35.2086 37.9147 39.5061 32.6323 39.5061ZM32.6323 21.0491C27.7375 21.0491 23.7554 25.0312 23.7554 29.926C23.7554 34.8208 27.7375 38.803 32.6323 38.803C37.5271 38.803 41.5093 34.8208 41.5093 29.926C41.5093 25.0312 37.5269 21.0491 32.6323 21.0491Z" fill="#DFDFDF"/>
<path d="M37.0228 24.9746L32.1841 32.0027L29.9286 29.0828C29.7254 28.8198 29.4294 28.6324 29.0987 28.5982C28.7911 28.5662 28.4958 28.6505 28.2548 28.8367C28.0066 29.0283 27.8481 29.3053 27.8082 29.6163C27.7683 29.9274 27.8518 30.2354 28.0435 30.4836L30.6839 33.902C31.045 34.3696 31.6133 34.6487 32.2044 34.6487L32.2563 34.648C32.8675 34.6313 33.4391 34.3209 33.7858 33.8175L38.9571 26.3063C39.3315 25.7625 39.184 25.0168 38.6307 24.6566C38.097 24.3093 37.3838 24.4503 37.0228 24.9746Z" fill="#DFDFDF"/>
</svg>
