<svg width="30" height="30" viewBox="0 0 30 30" fill="none" xmlns="http://www.w3.org/2000/svg">
<path d="M25.1332 6.93245L21.2766 10.7879L9.23208 22.8324L8.87114 23.1922L5.92036 24.5492L3.29301 25.7563L4.49887 23.1301H4.50005L8.05903 21.6582L20.1036 9.61487L25.4286 4.2887C25.95 5.11252 25.8504 6.21409 25.1332 6.93245Z" fill="#EBE7F2"/>
<path d="M18.4686 7.56544C18.3542 7.45095 18.1686 7.45106 18.0543 7.56544L5.64872 19.9697C5.62411 19.9942 5.60407 20.0231 5.58966 20.0547L4.24423 22.9853C4.24001 22.9926 4.23626 23.0001 4.23262 23.0078L3.02677 25.6339C2.97555 25.7453 2.99923 25.8767 3.08583 25.9634C3.14196 26.0195 3.21696 26.0492 3.29302 26.0492C3.33438 26.0492 3.37598 26.0404 3.41524 26.0225L6.02677 24.822C6.03766 24.8178 6.04844 24.8129 6.05887 24.8072L8.99348 23.4583C9.02489 23.4439 9.05348 23.424 9.07786 23.3996L9.43915 23.0395L21.4837 10.9949C21.5386 10.94 21.5695 10.8656 21.5695 10.7877C21.5695 10.7099 21.5386 10.6355 21.4837 10.5806L18.4686 7.56544ZM4.58958 23.6347L5.41505 24.4585L3.88915 25.1599L4.58958 23.6347ZM5.98294 24.1974L4.85102 23.0678L6.10024 20.347L6.21661 20.2306L8.81782 22.8318L8.70134 22.9478L5.98294 24.1974ZM9.23243 22.4178L6.63098 19.8163L18.2614 8.18688L20.8624 10.7879L9.23243 22.4178Z" fill="#846F75"/>
<path d="M25.3396 3.70906C24.3941 2.76371 22.8556 2.76359 21.91 3.70906L20.2045 5.41472C20.09 5.5291 20.09 5.7146 20.2045 5.82898L22.2739 7.89839C22.3882 8.01289 22.5739 8.01289 22.6881 7.89839C22.8026 7.78402 22.8026 7.59851 22.6881 7.48414L20.8259 5.62191L22.3243 4.12343C23.0415 3.40636 24.2082 3.40648 24.9252 4.12343C25.2726 4.47078 25.464 4.93273 25.464 5.42398C25.464 5.91523 25.2727 6.37707 24.9252 6.72453L23.2197 8.43007C23.1052 8.54445 23.1052 8.72996 23.2197 8.84433C23.2769 8.90152 23.3519 8.93011 23.4269 8.93011C23.5019 8.93011 23.5769 8.90152 23.6341 8.84433L25.3396 7.13878C25.7977 6.6807 26.05 6.07179 26.05 5.42398C26.0499 4.77617 25.7976 4.16714 25.3396 3.70906Z" fill="#846F75"/>
<path d="M8.55766 20.0768C8.44317 20.1911 8.44317 20.3766 8.55766 20.491C8.61485 20.5482 8.68985 20.5768 8.76485 20.5768C8.83985 20.5768 8.91485 20.5482 8.97204 20.491L18.6548 10.8082C18.7693 10.6938 18.7693 10.5083 18.6548 10.3939C18.5404 10.2794 18.3548 10.2794 18.2405 10.3939L8.55766 20.0768Z" fill="#846F75"/>
<path d="M22.88 9.26858L19.7806 6.1692C19.6756 6.0642 19.5052 6.0642 19.4002 6.1692L18.7661 6.80319C18.6611 6.90819 18.6611 7.07858 18.7661 7.18358L21.8655 10.283C21.9705 10.388 22.1409 10.388 22.2459 10.283L22.8798 9.64897C22.985 9.54397 22.985 9.37358 22.88 9.26858Z" fill="#F9B087"/>
</svg>
