<svg width="24" height="24" viewBox="0 0 24 24" fill="none" xmlns="http://www.w3.org/2000/svg">
<path d="M11.8928 15C12.6885 15 13.4515 14.6839 14.0142 14.1213C14.5768 13.5587 14.8928 12.7956 14.8928 12C14.8928 11.9121 14.8888 11.8251 14.8813 11.7391L11.6319 14.9885C11.7179 14.996 11.8047 15 11.8928 15ZM21.8228 2.72033L20.6785 1.57712C20.6384 1.53696 20.5839 1.5144 20.5271 1.5144C20.4703 1.5144 20.4158 1.53696 20.3756 1.57712L17.4474 4.50614C15.832 3.6806 14.0162 3.26783 12 3.26783C6.85176 3.26783 3.01069 5.94908 0.476757 11.3116C0.374906 11.5273 0.322083 11.7628 0.322083 12.0013C0.322083 12.2398 0.374906 12.4754 0.476757 12.691C1.48926 14.8237 2.70845 16.5331 4.13435 17.8192L1.30069 20.6518C1.26053 20.6919 1.23797 20.7464 1.23797 20.8032C1.23797 20.86 1.26053 20.9145 1.30069 20.9547L2.44417 22.0982C2.48435 22.1383 2.53883 22.1609 2.59564 22.1609C2.65245 22.1609 2.70693 22.1383 2.74711 22.0982L21.8228 3.02355C21.8428 3.00364 21.8586 2.98001 21.8693 2.954C21.8801 2.92798 21.8857 2.9001 21.8857 2.87194C21.8857 2.84378 21.8801 2.81589 21.8693 2.78988C21.8586 2.76387 21.8428 2.74023 21.8228 2.72033ZM7.17854 12C7.17847 11.1857 7.3893 10.3853 7.79051 9.67673C8.19172 8.96816 8.76961 8.37559 9.4679 7.95675C10.1662 7.53791 10.9611 7.30707 11.7751 7.28673C12.5891 7.26639 13.3945 7.45724 14.1128 7.84069L12.8105 9.14301C12.2853 8.97484 11.7239 8.95459 11.1879 9.08447C10.652 9.21436 10.1621 9.48937 9.77218 9.87932C9.38222 10.2693 9.10721 10.7591 8.97733 11.2951C8.84744 11.8311 8.86769 12.3924 9.03586 12.9177L7.73354 14.22C7.36808 13.5372 7.1774 12.7745 7.17854 12Z" fill="black"/>
<path d="M23.5232 11.3089C22.5804 9.32323 21.4581 7.70403 20.1565 6.45135L16.2956 10.3125C16.6211 11.1633 16.6932 12.0901 16.5033 12.9809C16.3134 13.8718 15.8696 14.6886 15.2256 15.3327C14.5815 15.9768 13.7646 16.4206 12.8738 16.6105C11.9829 16.8004 11.0561 16.7282 10.2054 16.4028L6.93054 19.6776C8.44983 20.3806 10.1396 20.7322 12 20.7322C17.1482 20.7322 20.9893 18.0509 23.5232 12.6884C23.6251 12.4727 23.6779 12.2372 23.6779 11.9987C23.6779 11.7602 23.6251 11.5246 23.5232 11.3089Z" fill="black"/>
</svg>
