<svg width="45" height="45" viewBox="0 0 45 45" fill="none" xmlns="http://www.w3.org/2000/svg">
<path d="M32.3438 3.51562V9.09141L27.4219 5.97656V3.51562H32.3438Z" fill="#EDEFF1"/>
<path d="M33.1643 1.40625H26.7188V3.51562H33.1643V1.40625Z" fill="#6E83B7"/>
<path d="M20.3906 4.92188L4.92188 14.7656V36.5625H20.3906H35.8594V14.7656L20.3906 4.92188Z" fill="#EDEFF1"/>
<path d="M35.8594 36.5625V21.9263C35.043 22.2174 34.4531 22.9908 34.4531 23.9063V31.6406C34.4531 32.0281 34.1381 32.3438 33.75 32.3438H33.442C32.4724 32.3438 31.6308 33.0005 31.3959 33.9413L30.9628 35.6745L30.7202 36.5625H35.8594Z" fill="#D3D3D3"/>
<path d="M33.75 18.9844H22.5V36.5625H33.75V18.9844Z" fill="#D3D3D3"/>
<path d="M4.92188 14.7656V16.875L20.3906 7.03125L35.8594 16.875V14.7656L20.3906 4.92188L4.92188 14.7656Z" fill="#D3D3D3"/>
<path d="M20.3906 1.52368L2.8125 12.6563V16.1719L20.3906 5.03931L37.9688 16.1719V12.6563L20.3906 1.52368Z" fill="#6E83B7"/>
<path d="M20.3906 14.7656C21.9439 14.7656 23.2031 13.5064 23.2031 11.9531C23.2031 10.3998 21.9439 9.14062 20.3906 9.14062C18.8373 9.14062 17.5781 10.3998 17.5781 11.9531C17.5781 13.5064 18.8373 14.7656 20.3906 14.7656Z" fill="#6E83B7"/>
<path d="M20.3906 14.0625C21.5556 14.0625 22.5 13.1181 22.5 11.9531C22.5 10.7881 21.5556 9.84375 20.3906 9.84375C19.2256 9.84375 18.2812 10.7881 18.2812 11.9531C18.2812 13.1181 19.2256 14.0625 20.3906 14.0625Z" fill="#80D6FB"/>
<path d="M33.0469 19.6875H23.2031V36.5625H33.0469V19.6875Z" fill="#6E83B7"/>
<path d="M33.0469 36.5625V32.3838C32.2509 32.535 31.5977 33.1312 31.3952 33.9412L30.9621 35.6744L30.7202 36.5625H33.0469Z" fill="#466089"/>
<path d="M24.6677 28.7698C25.0561 28.7698 25.3709 28.455 25.3709 28.0667C25.3709 27.6783 25.0561 27.3635 24.6677 27.3635C24.2794 27.3635 23.9646 27.6783 23.9646 28.0667C23.9646 28.455 24.2794 28.7698 24.6677 28.7698Z" fill="#FFE352"/>
<path d="M19.6875 18.9844H7.03125V28.8281H19.6875V18.9844Z" fill="#6E83B7"/>
<path d="M18.9844 19.6875H7.73438V28.125H18.9844V19.6875Z" fill="#80D6FB"/>
<path d="M18.9844 23.5547H13.7109V19.6875H13.0078V23.5547H7.73438V24.2578H13.0078V28.125H13.7109V24.2578H18.9844V23.5547Z" fill="#6E83B7"/>
<path d="M41.6693 17.8369L42.1875 17.5781L41.6693 17.3187C41.3972 17.1823 41.1764 16.9622 41.0407 16.6901L40.7812 16.1719L40.5218 16.6901C40.3854 16.9622 40.1653 17.183 39.8932 17.3187L39.375 17.5781L39.8932 17.8376C40.1653 17.974 40.3861 18.1941 40.5218 18.4662L40.7812 18.9844L41.0407 18.4662C41.1764 18.1941 41.3972 17.9733 41.6693 17.8369Z" fill="#80D6FB"/>
<path d="M7.65984 5.3107L8.4375 4.92188L7.65984 4.53305C7.25133 4.32914 6.92086 3.99797 6.71625 3.58945L6.32812 2.8125L5.9393 3.59016C5.73539 3.99867 5.40422 4.32914 4.9957 4.53375L4.21875 4.92188L4.99641 5.3107C5.40492 5.51461 5.73539 5.84578 5.94 6.2543L6.32812 7.03125L6.71695 6.25359C6.92086 5.84578 7.25203 5.51461 7.65984 5.3107Z" fill="#80D6FB"/>
<path d="M38.4124 6.4575L38.6719 6.32812L38.4124 6.19875C38.276 6.13055 38.1663 6.02016 38.0981 5.88445L37.9688 5.625L37.8394 5.88445C37.7712 6.02086 37.6608 6.13055 37.5251 6.19875L37.2656 6.32812L37.5251 6.4575C37.6615 6.5257 37.7712 6.63609 37.8394 6.7718L37.9688 7.03125L38.0981 6.7718C38.1663 6.63609 38.2767 6.5257 38.4124 6.4575Z" fill="#80D6FB"/>
<path d="M43.5938 43.5938L41.4844 35.8594H36.5625H31.6406L29.5312 43.5938H43.5938Z" fill="#FFE352"/>
<path d="M37.2656 35.8594H35.8594V38.6719H37.2656V35.8594Z" fill="#FFB236"/>
<path d="M40.0781 35.8594H38.6719V37.9688H40.0781V35.8594Z" fill="#FFB236"/>
<path d="M34.4531 35.8594H33.0469V37.9688H34.4531V35.8594Z" fill="#FFB236"/>
<path d="M41.4844 35.8594L41.0477 34.1121C40.8909 33.4863 40.3284 33.0469 39.683 33.0469H39.375C38.598 33.0469 37.9688 32.4176 37.9688 31.6406V23.9815C37.9688 23.2812 37.4899 22.6315 36.7987 22.519C35.9177 22.3763 35.1562 23.052 35.1562 23.9063V31.6406C35.1562 32.4176 34.527 33.0469 33.75 33.0469H33.442C32.7966 33.0469 32.2341 33.4863 32.078 34.1121L31.6406 35.8594H41.4844ZM36.5625 23.2031C36.9506 23.2031 37.2656 23.5181 37.2656 23.9063C37.2656 24.2944 36.9506 24.6094 36.5625 24.6094C36.1744 24.6094 35.8594 24.2944 35.8594 23.9063C35.8594 23.5181 36.1744 23.2031 36.5625 23.2031Z" fill="#6E83B7"/>
</svg>
