<svg width="20" height="20" viewBox="0 0 20 20" fill="none" xmlns="http://www.w3.org/2000/svg">
<path d="M16.2513 14.3254H3.74866C3.69686 14.3254 3.64718 14.3048 3.61055 14.2682C3.57392 14.2315 3.55334 14.1819 3.55334 14.1301C3.55334 14.0783 3.57392 14.0286 3.61055 13.992C3.64718 13.9553 3.69686 13.9348 3.74866 13.9348H16.2513C16.3031 13.9348 16.3528 13.9553 16.3894 13.992C16.426 14.0286 16.4466 14.0783 16.4466 14.1301C16.4466 14.1819 16.426 14.2315 16.3894 14.2682C16.3528 14.3048 16.3031 14.3254 16.2513 14.3254Z" fill="#5843BE"/>
<path d="M7.11186 10.5732H3.74866C3.69686 10.5732 3.64718 10.5526 3.61055 10.516C3.57392 10.4794 3.55334 10.4297 3.55334 10.3779V8.92743C3.55334 8.87563 3.57392 8.82595 3.61055 8.78932C3.64718 8.75269 3.69686 8.73212 3.74866 8.73212H7.92053C7.97233 8.73212 8.02201 8.75269 8.05864 8.78932C8.09527 8.82595 8.11584 8.87563 8.11584 8.92743C8.11584 8.97923 8.09527 9.02891 8.05864 9.06554C8.02201 9.10216 7.97233 9.12274 7.92053 9.12274H3.94397V10.1826H7.11186C7.16366 10.1826 7.21334 10.2032 7.24997 10.2398C7.2866 10.2764 7.30717 10.3261 7.30717 10.3779C7.30717 10.4297 7.2866 10.4794 7.24997 10.516C7.21334 10.5526 7.16366 10.5732 7.11186 10.5732Z" fill="#ED9ABC"/>
<path d="M16.2513 10.5732H12.9929C12.9411 10.5732 12.8914 10.5526 12.8548 10.516C12.8182 10.4794 12.7976 10.4297 12.7976 10.3779C12.7976 10.3261 12.8182 10.2764 12.8548 10.2398C12.8914 10.2032 12.9411 10.1826 12.9929 10.1826H16.056V9.12274H12.0634C12.0116 9.12274 11.9619 9.10216 11.9252 9.06554C11.8886 9.02891 11.868 8.97923 11.868 8.92743C11.868 8.87563 11.8886 8.82595 11.9252 8.78932C11.9619 8.75269 12.0116 8.73212 12.0634 8.73212H16.2513C16.3031 8.73212 16.3528 8.75269 16.3894 8.78932C16.4261 8.82595 16.4466 8.87563 16.4466 8.92743V10.3779C16.4466 10.4297 16.4261 10.4794 16.3894 10.516C16.3528 10.5526 16.3031 10.5732 16.2513 10.5732Z" fill="#ED9ABC"/>
<path d="M10 13.4395C9.55005 13.4395 9.11021 13.306 8.73608 13.0561C8.36196 12.8061 8.07037 12.4508 7.89818 12.0351C7.72599 11.6194 7.68094 11.1619 7.76872 10.7206C7.8565 10.2793 8.07317 9.87396 8.39134 9.5558C8.7095 9.23763 9.11487 9.02096 9.55618 8.93318C9.99748 8.8454 10.4549 8.89045 10.8706 9.06264C11.2863 9.23483 11.6416 9.52642 11.8916 9.90054C12.1416 10.2747 12.275 10.7145 12.275 11.1645C12.2743 11.7676 12.0344 12.3459 11.6079 12.7724C11.1814 13.1989 10.6032 13.4388 10 13.4395ZM10 9.28009C9.62731 9.28009 9.26299 9.39061 8.9531 9.59767C8.64322 9.80472 8.4017 10.099 8.25907 10.4433C8.11645 10.7877 8.07913 11.1666 8.15184 11.5321C8.22455 11.8976 8.40402 12.2334 8.66755 12.4969C8.93109 12.7605 9.26685 12.9399 9.63238 13.0126C9.99792 13.0853 10.3768 13.048 10.7211 12.9054C11.0655 12.7628 11.3598 12.5213 11.5668 12.2114C11.7739 11.9015 11.8844 11.5372 11.8844 11.1645C11.8838 10.6649 11.6851 10.1859 11.3318 9.83263C10.9786 9.47936 10.4996 9.28065 10 9.28009Z" fill="#5843BE"/>
<path d="M10 7.97656C9.36944 7.97656 8.75303 8.16355 8.22873 8.51387C7.70443 8.8642 7.29579 9.36213 7.05449 9.94469C6.81318 10.5273 6.75004 11.1683 6.87306 11.7868C6.99608 12.4052 7.29972 12.9733 7.7456 13.4192C8.19148 13.865 8.75956 14.1687 9.37802 14.2917C9.99647 14.4147 10.6375 14.3516 11.2201 14.1103C11.8026 13.869 12.3006 13.4603 12.6509 12.936C13.0012 12.4117 13.1882 11.7953 13.1882 11.1648C13.1873 10.3195 12.8511 9.50911 12.2534 8.91142C11.6557 8.31372 10.8453 7.97751 10 7.97656ZM10 13.9623C9.44669 13.9623 8.90581 13.7983 8.44575 13.4909C7.98569 13.1835 7.62712 12.7465 7.41538 12.2354C7.20364 11.7242 7.14823 11.1617 7.25618 10.619C7.36412 10.0763 7.63057 9.57783 8.02182 9.18658C8.41306 8.79533 8.91154 8.52889 9.45422 8.42094C9.9969 8.313 10.5594 8.3684 11.0706 8.58014C11.5818 8.79188 12.0187 9.15046 12.3261 9.61051C12.6335 10.0706 12.7976 10.6115 12.7976 11.1648C12.7967 11.9064 12.5016 12.6174 11.9771 13.1418C11.4527 13.6662 10.7417 13.9612 10 13.962V13.9623Z" fill="#846F75"/>
<path d="M17.1094 7.44531H16.4466V6.96625C16.4466 6.91445 16.4261 6.86477 16.3894 6.82814C16.3528 6.79151 16.3031 6.77093 16.2513 6.77093H15.4865V5.63812C15.4865 5.58632 15.4659 5.53664 15.4293 5.50001C15.3927 5.46339 15.343 5.44281 15.2912 5.44281H13.4525C13.4007 5.44281 13.351 5.46339 13.3144 5.50001C13.2778 5.53664 13.2572 5.58632 13.2572 5.63812V6.77093H13.1785L12.4093 4.75164C12.3952 4.71465 12.3702 4.68281 12.3376 4.66035C12.305 4.63789 12.2664 4.62586 12.2268 4.62585H7.52805C7.48846 4.62586 7.44982 4.63789 7.41723 4.66035C7.38463 4.68281 7.35964 4.71465 7.34555 4.75164L6.57633 6.77093H6.49758V5.63812C6.49758 5.58632 6.477 5.53664 6.44037 5.50001C6.40374 5.46339 6.35407 5.44281 6.30227 5.44281H4.46367C4.41187 5.44281 4.36219 5.46339 4.32557 5.50001C4.28894 5.53664 4.26836 5.58632 4.26836 5.63812V6.77093H3.74867C3.69687 6.77093 3.64719 6.79151 3.61057 6.82814C3.57394 6.86477 3.55336 6.91445 3.55336 6.96625V7.44531H2.89062C2.83882 7.44531 2.78915 7.46589 2.75252 7.50251C2.71589 7.53914 2.69531 7.58882 2.69531 7.64062V8.78468C2.69531 8.83648 2.71589 8.88616 2.75252 8.92279C2.78915 8.95942 2.83882 8.98 2.89062 8.98H3.55336V15.1791C3.55336 15.2309 3.57394 15.2805 3.61057 15.3172C3.64719 15.3538 3.69687 15.3744 3.74867 15.3744H16.2513C16.3031 15.3744 16.3528 15.3538 16.3894 15.3172C16.4261 15.2805 16.4466 15.2309 16.4466 15.1791V8.97976H17.1094C17.1612 8.97976 17.2109 8.95918 17.2475 8.92256C17.2841 8.88593 17.3047 8.83625 17.3047 8.78445V7.64062C17.3047 7.58882 17.2841 7.53914 17.2475 7.50251C17.2109 7.46589 17.1612 7.44531 17.1094 7.44531ZM15.0959 6.77117H14.8371V5.83367H15.0959V6.77117ZM13.6478 5.83367H14.4465V6.77117H13.6478V5.83367ZM6.10695 6.77117H5.30844V5.83367H6.10695V6.77117ZM4.65898 5.83367H4.91781V6.77117H4.65898V5.83367ZM3.08594 8.58914V7.83593H3.55336V8.58937L3.08594 8.58914ZM16.056 14.9835H3.94398V7.16156H6.71094C6.75053 7.16157 6.7892 7.14955 6.8218 7.12708C6.85441 7.10462 6.87942 7.07278 6.89352 7.03578L7.66273 5.01648H12.0924L12.8616 7.03578C12.8757 7.07277 12.9007 7.1046 12.9333 7.12706C12.9659 7.14952 13.0046 7.16155 13.0441 7.16156H16.0563V14.9835H16.056ZM16.9141 8.58914H16.4466V7.83593H16.9141V8.58914Z" fill="#846F75"/>
<path d="M12.0634 7.16156H7.6915C7.6397 7.16156 7.59002 7.14098 7.55339 7.10435C7.51676 7.06773 7.49619 7.01805 7.49619 6.96625C7.49619 6.91445 7.51676 6.86477 7.55339 6.82814C7.59002 6.79151 7.6397 6.77094 7.6915 6.77094H12.0634C12.1152 6.77094 12.1649 6.79151 12.2015 6.82814C12.2381 6.86477 12.2587 6.91445 12.2587 6.96625C12.2587 7.01805 12.2381 7.06773 12.2015 7.10435C12.1649 7.14098 12.1152 7.16156 12.0634 7.16156Z" fill="#5843BE"/>
</svg>
