<svg width="46" height="45" viewBox="0 0 46 45" fill="none" xmlns="http://www.w3.org/2000/svg">
<g clip-path="url(#clip0_6_546)">
<path d="M20.0522 4.4029L17.6366 0.754028L15.2211 4.4029L11.4068 0.754028L13.1904 11.8943H17.6366H22.0829L23.8665 0.754028L20.0522 4.4029Z" fill="#CCCCCC"/>
<path d="M21.7932 2.73754L20.327 11.8943H22.0828L23.8665 0.754028L21.7932 2.73754Z" fill="#D6D1CF"/>
<path d="M13.4803 2.73754L14.9463 11.8943H13.1904L11.4068 0.754028L13.4803 2.73754Z" fill="white"/>
<path d="M22.0828 12.2459H13.1904C13.0178 12.2459 12.8707 12.1204 12.8433 11.9499L11.0598 0.809619C11.0359 0.660557 11.1099 0.5129 11.2436 0.442764C11.3774 0.372803 11.5407 0.395654 11.6501 0.500068L15.1604 3.85819L17.3436 0.560185C17.4088 0.461748 17.5189 0.402685 17.6368 0.402685C17.7548 0.402685 17.8648 0.461748 17.93 0.560185L20.1134 3.85819L23.6237 0.500068C23.7329 0.395654 23.8966 0.372803 24.0301 0.442764C24.1639 0.5129 24.2379 0.660557 24.214 0.809619L22.4298 11.9499C22.4026 12.1204 22.2555 12.2459 22.0828 12.2459ZM13.4901 11.5428H21.7831L23.3543 1.73089L20.2955 4.65694C20.2201 4.72901 20.1164 4.76347 20.0134 4.75222C19.9098 4.74061 19.8168 4.68366 19.7594 4.59683L17.6366 1.39093L15.5144 4.597C15.4569 4.68384 15.364 4.74079 15.2604 4.75239C15.1574 4.76364 15.0534 4.72901 14.9783 4.65712L11.9192 1.73071L13.4901 11.5428Z" fill="#DFDFDF"/>
<path d="M34.4909 31.9531C34.4909 41.2615 26.945 44.2459 17.6366 44.2459C8.32832 44.2459 0.782379 41.2615 0.782379 31.9531C0.782379 22.6448 8.32832 10.5374 17.6366 10.5374C26.945 10.5374 34.4909 22.6448 34.4909 31.9531Z" fill="#CCCCCC"/>
<path d="M17.6366 10.5374C17.2533 10.5374 16.8732 10.5599 16.4962 10.5998C25.2726 11.5317 32.2101 23.0282 32.2101 31.9531C32.2101 40.8779 25.2722 43.9871 16.4962 44.2285C16.8734 44.2388 17.2529 44.2459 17.6366 44.2459C26.945 44.2459 34.4909 41.2615 34.4909 31.9531C34.4909 22.6448 26.9451 10.5374 17.6366 10.5374Z" fill="#D6D1CF"/>
<path d="M17.6366 10.5374C18.02 10.5374 18.4001 10.5599 18.7769 10.5998C10.0005 11.5317 3.06297 23.0282 3.06297 31.9531C3.06297 40.8779 10.0009 43.9871 18.7769 44.2285C18.3997 44.2388 18.0202 44.2459 17.6366 44.2459C8.32832 44.2459 0.782379 41.2615 0.782379 31.9531C0.782379 22.6448 8.32832 10.5374 17.6366 10.5374Z" fill="white"/>
<path d="M17.6366 44.5974C12.4762 44.5974 8.40373 43.6858 5.53234 41.8881C2.14732 39.7687 0.430817 36.4261 0.430817 31.9531C0.430817 27.2376 2.30148 21.8524 5.43461 17.5477C8.89011 12.8002 13.2236 10.1858 17.6366 10.1858C22.0498 10.1858 26.3833 12.8004 29.8388 17.5477C32.972 21.8524 34.8426 27.2376 34.8426 31.9531C34.8426 36.4261 33.1261 39.7685 29.7413 41.8881C26.8697 43.6858 22.797 44.5974 17.6366 44.5974ZM17.6366 10.8889C13.4543 10.8889 9.32271 13.4007 6.00308 17.9615C2.95416 22.1503 1.13394 27.3809 1.13394 31.9531C1.13394 36.1677 2.73935 39.3098 5.90552 41.292C8.66318 43.0187 12.6103 43.8941 17.6366 43.8941C22.6633 43.8941 26.6103 43.0187 29.3679 41.292C32.5341 39.3098 34.1395 36.1677 34.1395 31.9531C34.1395 27.3809 32.3193 22.1503 29.2704 17.9615C25.9507 13.4007 21.819 10.8889 17.6366 10.8889Z" fill="#DFDFDF"/>
<path d="M7.08027 19.3183C7.00855 19.3183 6.93613 19.2964 6.87373 19.251C6.71658 19.1367 6.68213 18.9168 6.79638 18.7599C7.37277 17.9681 7.98924 17.2158 8.62873 16.5238C8.76039 16.3814 8.98293 16.3724 9.12549 16.5042C9.26822 16.6361 9.27683 16.8584 9.145 17.001C8.52414 17.6728 7.92525 18.4039 7.36486 19.1737C7.29613 19.2682 7.1889 19.3183 7.08027 19.3183Z" fill="#DFDFDF"/>
<path d="M17.7938 21.6638C18.171 21.6638 18.4697 21.9625 18.4697 22.3397V22.6856C19.3973 22.7957 20.1832 23.0943 20.9063 23.5503C21.1579 23.6918 21.378 23.9275 21.378 24.3049C21.378 24.7922 20.9849 25.1694 20.4977 25.1694C20.3403 25.1694 20.1834 25.1223 20.026 25.0279C19.4758 24.6978 18.9413 24.4621 18.4069 24.3362V27.3544C20.7961 27.9517 21.8179 28.9106 21.8179 30.5926C21.8179 32.3218 20.4662 33.4693 18.4697 33.6579V34.601C18.4697 34.9782 18.171 35.277 17.7938 35.277C17.4166 35.277 17.1021 34.9782 17.1021 34.601V33.6264C15.9231 33.5006 14.8386 33.0762 13.8797 32.4002C13.6125 32.2272 13.4552 31.9759 13.4552 31.6457C13.4552 31.1585 13.8324 30.7812 14.3198 30.7812C14.5084 30.7812 14.6972 30.8442 14.8386 30.954C15.5774 31.4884 16.3005 31.8502 17.165 32.0073V28.9106C14.8698 28.3133 13.8009 27.4486 13.8009 25.6723C13.8009 23.9903 15.1372 22.8271 17.1021 22.6698V22.3397C17.1021 21.9625 17.4166 21.6638 17.7938 21.6638ZM17.165 27.0241V24.2418C16.159 24.3362 15.6559 24.8706 15.6559 25.5623C15.6561 26.2225 15.9546 26.6312 17.165 27.0241ZM18.4069 29.2092V32.0702C19.4129 31.9602 19.9631 31.4571 19.9631 30.7027C19.9633 30.011 19.6173 29.5865 18.4069 29.2092Z" fill="#DFDFDF"/>
<path d="M44.3761 32.7596H24.2645V35.6312H44.3761V32.7596Z" fill="#CCCCCC"/>
<path d="M44.3761 35.6312H24.2645V38.5028H44.3761V35.6312Z" fill="#CCCCCC"/>
<path d="M44.3761 38.5027H24.2645V41.3742H44.3761V38.5027Z" fill="#CCCCCC"/>
<path d="M44.3761 41.3743H24.2645V44.2458H44.3761V41.3743Z" fill="#CCCCCC"/>
<path d="M44.3761 32.7596H43.2603V35.6312H44.3761V32.7596Z" fill="#DFDFDF"/>
<path d="M25.3803 32.7596H24.2645V35.6312H25.3803V32.7596Z" fill="#DFDFDF"/>
<path d="M44.3761 35.6312H43.2603V38.5028H44.3761V35.6312Z" fill="#DFDFDF"/>
<path d="M25.3803 35.6312H24.2645V38.5028H25.3803V35.6312Z" fill="#DFDFDF"/>
<path d="M44.3761 38.5027H43.2603V41.3742H44.3761V38.5027Z" fill="#DFDFDF"/>
<path d="M25.3803 38.5027H24.2645V41.3742H25.3803V38.5027Z" fill="#DFDFDF"/>
<path d="M44.3761 41.3743H43.2603V44.2458H44.3761V41.3743Z" fill="#DFDFDF"/>
<path d="M25.3803 41.3743H24.2645V44.2458H25.3803V41.3743Z" fill="#DFDFDF"/>
<path d="M44.3761 21.5073H24.2645V32.7596H44.3761V21.5073Z" fill="#CCCCCC"/>
<path d="M34.3204 30.9584C36.4329 30.9584 38.1454 29.2458 38.1454 27.1333C38.1454 25.0209 36.4329 23.3083 34.3204 23.3083C32.2079 23.3083 30.4954 25.0209 30.4954 27.1333C30.4954 29.2458 32.2079 30.9584 34.3204 30.9584Z" fill="#DFDFDF"/>
<path d="M44.3761 21.5073H43.2603V32.7596H44.3761V21.5073Z" fill="#DFDFDF"/>
<path d="M25.3803 21.5073H24.2645V32.7596H25.3803V21.5073Z" fill="#DFDFDF"/>
<path d="M34.3787 24.6055C34.5188 24.6055 34.6298 24.7164 34.6298 24.8565V24.9848C34.9743 25.0258 35.2661 25.1367 35.5347 25.306C35.628 25.3585 35.7099 25.4461 35.7099 25.5862C35.7099 25.7672 35.5639 25.9073 35.383 25.9073C35.3246 25.9073 35.2663 25.8897 35.2077 25.8547C35.0035 25.7321 34.8048 25.6445 34.6064 25.5979V26.7189C35.4937 26.9407 35.8732 27.2969 35.8732 27.9216C35.8732 28.5637 35.371 28.99 34.6296 29.0601V29.4104C34.6296 29.5505 34.5187 29.6615 34.3786 29.6615C34.2385 29.6615 34.1218 29.5505 34.1218 29.4104V29.0485C33.6839 29.0018 33.281 28.8443 32.9249 28.5932C32.8255 28.5291 32.7672 28.4356 32.7672 28.313C32.7672 28.1322 32.9073 27.9919 33.0883 27.9919C33.1583 27.9919 33.2284 28.0153 33.281 28.0561C33.5554 28.2545 33.824 28.3888 34.145 28.4472V27.297C33.2926 27.0752 32.8955 26.754 32.8955 26.0943C32.8955 25.4696 33.3917 25.0375 34.1216 24.9792V24.8565C34.1218 24.7164 34.2386 24.6055 34.3787 24.6055ZM34.1451 26.5964V25.563C33.7714 25.5979 33.5847 25.7966 33.5847 26.0534C33.5847 26.2986 33.6957 26.4503 34.1451 26.5964ZM34.6064 27.4078V28.4704C34.9801 28.4296 35.1844 28.2427 35.1844 27.9625C35.1844 27.7055 35.056 27.5479 34.6064 27.4078Z" fill="#DFDFDF"/>
<path d="M34.3204 31.3099C32.0173 31.3099 30.1438 29.4363 30.1438 27.1333C30.1438 24.8303 32.0173 22.9568 34.3204 22.9568C36.6235 22.9568 38.4969 24.8304 38.4969 27.1333C38.4969 29.4363 36.6235 31.3099 34.3204 31.3099ZM34.3204 23.6599C32.4051 23.6599 30.8469 25.218 30.8469 27.1333C30.8469 29.0487 32.4051 30.6068 34.3204 30.6068C36.2357 30.6068 37.7938 29.0487 37.7938 27.1333C37.7938 25.218 36.2355 23.6599 34.3204 23.6599Z" fill="#DFDFDF"/>
<path d="M44.3761 33.1112H41.278C41.0839 33.1112 40.9264 32.9537 40.9264 32.7596C40.9264 30.8575 42.474 29.3099 44.3761 29.3099C44.5702 29.3099 44.7277 29.4674 44.7277 29.6615V32.7596C44.7277 32.9537 44.5702 33.1112 44.3761 33.1112ZM41.6519 32.4081H44.0246V30.0354C42.7904 30.1936 41.8103 31.1739 41.6519 32.4081Z" fill="#DFDFDF"/>
<path d="M44.3761 24.957C42.474 24.957 40.9264 23.4095 40.9264 21.5073C40.9264 21.3133 41.0839 21.1558 41.278 21.1558H44.3761C44.5702 21.1558 44.7277 21.3133 44.7277 21.5073V24.6055C44.7277 24.7997 44.5702 24.957 44.3761 24.957ZM41.6519 21.8589C41.8103 23.093 42.7906 24.0734 44.0246 24.2316V21.8589H41.6519Z" fill="#DFDFDF"/>
<path d="M24.2645 24.957C24.0704 24.957 23.9129 24.7995 23.9129 24.6055V21.5073C23.9129 21.3133 24.0704 21.1558 24.2645 21.1558H27.3628C27.5568 21.1558 27.7143 21.3133 27.7143 21.5073C27.7143 23.4095 26.1668 24.957 24.2645 24.957ZM24.616 21.8589V24.2316C25.8502 24.0734 26.8305 23.0929 26.9889 21.8589H24.616Z" fill="#DFDFDF"/>
<path d="M27.3628 33.1111H24.2645C24.0704 33.1111 23.9129 32.9536 23.9129 32.7596V29.6613C23.9129 29.4672 24.0704 29.3097 24.2645 29.3097C26.1668 29.3097 27.7143 30.8573 27.7143 32.7594C27.7143 32.9536 27.5568 33.1111 27.3628 33.1111ZM24.616 32.408H26.9889C26.8305 31.1739 25.85 30.1935 24.616 30.0353V32.408Z" fill="#DFDFDF"/>
<path d="M44.3761 33.1112H24.2645C24.0704 33.1112 23.9129 32.9537 23.9129 32.7596V21.5073C23.9129 21.3133 24.0704 21.1558 24.2645 21.1558H44.3761C44.5702 21.1558 44.7277 21.3133 44.7277 21.5073V32.7596C44.7277 32.9537 44.5702 33.1112 44.3761 33.1112ZM24.616 32.408H44.0246V21.8589H24.616V32.408Z" fill="#DFDFDF"/>
<path d="M44.3761 35.9828H24.2645C24.0704 35.9828 23.9129 35.8253 23.9129 35.6312V32.7596C23.9129 32.5656 24.0704 32.4081 24.2645 32.4081H44.3761C44.5702 32.4081 44.7277 32.5656 44.7277 32.7596V35.6312C44.7277 35.8253 44.5702 35.9828 44.3761 35.9828ZM24.616 35.2796H44.0246V33.1112H24.616V35.2796Z" fill="#DFDFDF"/>
<path d="M44.3761 38.8544H24.2645C24.0704 38.8544 23.9129 38.6969 23.9129 38.5028V35.6312C23.9129 35.4372 24.0704 35.2797 24.2645 35.2797H44.3761C44.5702 35.2797 44.7277 35.4372 44.7277 35.6312V38.5028C44.7277 38.697 44.5702 38.8544 44.3761 38.8544ZM24.616 38.1512H44.0246V35.9828H24.616V38.1512Z" fill="#DFDFDF"/>
<path d="M44.3761 41.7258H24.2645C24.0704 41.7258 23.9129 41.5683 23.9129 41.3742V38.5027C23.9129 38.3086 24.0704 38.1511 24.2645 38.1511H44.3761C44.5702 38.1511 44.7277 38.3086 44.7277 38.5027V41.3742C44.7277 41.5685 44.5702 41.7258 44.3761 41.7258ZM24.616 41.0227H44.0246V38.8542H24.616V41.0227Z" fill="#DFDFDF"/>
<path d="M44.3761 44.5974H24.2645C24.0704 44.5974 23.9129 44.4399 23.9129 44.2458V41.3743C23.9129 41.1802 24.0704 41.0227 24.2645 41.0227H44.3761C44.5702 41.0227 44.7277 41.1802 44.7277 41.3743V44.2458C44.7277 44.4399 44.5702 44.5974 44.3761 44.5974ZM24.616 43.8943H44.0246V41.7258H24.616V43.8943Z" fill="#DFDFDF"/>
<path d="M18.6653 10.465V14.9112C18.6653 15.7006 19.3053 16.3406 20.0948 16.3406C20.8842 16.3406 21.5242 15.7006 21.5242 14.9112V10.465H18.6653Z" fill="#DFDFDF"/>
<path d="M20.0948 16.6922C19.1127 16.6922 18.3138 15.8933 18.3138 14.9112V10.465C18.3138 10.2709 18.4713 10.1134 18.6653 10.1134H21.5244C21.7185 10.1134 21.876 10.2709 21.876 10.465V14.9112C21.876 15.8933 21.0769 16.6922 20.0948 16.6922ZM19.0169 10.8165V14.9112C19.0169 15.5055 19.5004 15.9891 20.0948 15.9891C20.6893 15.9891 21.1728 15.5055 21.1728 14.9112V10.8165H19.0169Z" fill="#DFDFDF"/>
<path d="M22.0828 9.03528H13.1904C12.401 9.03528 11.761 9.6753 11.761 10.4647C11.761 11.2542 12.401 11.8942 13.1904 11.8942H22.0828C22.8723 11.8942 23.5123 11.2542 23.5123 10.4647C23.5125 9.6753 22.8723 9.03528 22.0828 9.03528Z" fill="#DFDFDF"/>
<path d="M22.0828 9.03528H20.327C21.1164 9.03528 21.7564 9.6753 21.7564 10.4647C21.7564 11.2542 21.1164 11.8942 20.327 11.8942H22.0828C22.8723 11.8942 23.5123 11.2542 23.5123 10.4647C23.5123 9.6753 22.8723 9.03528 22.0828 9.03528Z" fill="#DFDFDF"/>
<path d="M13.1904 11.8944H14.9463C14.1569 11.8944 13.5168 11.2544 13.5168 10.465C13.5168 9.67554 14.1569 9.03552 14.9463 9.03552H13.1904C12.401 9.03552 11.761 9.67554 11.761 10.465C11.761 11.2544 12.401 11.8944 13.1904 11.8944Z" fill="#DFDFDF"/>
<path d="M22.0828 12.246H13.1904C12.2083 12.246 11.4094 11.4471 11.4094 10.465C11.4094 9.48289 12.2083 8.68396 13.1904 8.68396H22.0828C23.0649 8.68396 23.864 9.48289 23.864 10.465C23.864 11.4471 23.0649 12.246 22.0828 12.246ZM13.1904 9.38691C12.5961 9.38691 12.1125 9.87048 12.1125 10.4648C12.1125 11.0591 12.5961 11.5427 13.1904 11.5427H22.0828C22.6773 11.5427 23.1609 11.0591 23.1609 10.4648C23.1609 9.87048 22.6773 9.38691 22.0828 9.38691H13.1904Z" fill="#DFDFDF"/>
</g>
<defs>
<clipPath id="clip0_6_546">
<rect width="45" height="45" fill="white" transform="translate(0.0792542)"/>
</clipPath>
</defs>
</svg>
