<svg width="32" height="32" viewBox="0 0 32 32" fill="none" xmlns="http://www.w3.org/2000/svg">
<path d="M29.1429 4.28566H23.1429V1.99995C23.1429 1.8428 23.0143 1.71423 22.8572 1.71423H20.8572C20.7 1.71423 20.5714 1.8428 20.5714 1.99995V4.28566H11.4286V1.99995C11.4286 1.8428 11.3 1.71423 11.1429 1.71423H9.14287C8.98572 1.71423 8.85715 1.8428 8.85715 1.99995V4.28566H2.85715C2.22501 4.28566 1.71429 4.79638 1.71429 5.42852V29.1428C1.71429 29.7749 2.22501 30.2857 2.85715 30.2857H29.1429C29.775 30.2857 30.2857 29.7749 30.2857 29.1428V5.42852C30.2857 4.79638 29.775 4.28566 29.1429 4.28566ZM27.7143 27.7142H4.28572V14.1428H27.7143V27.7142ZM4.28572 11.7142V6.85709H8.85715V8.57138C8.85715 8.72852 8.98572 8.85709 9.14287 8.85709H11.1429C11.3 8.85709 11.4286 8.72852 11.4286 8.57138V6.85709H20.5714V8.57138C20.5714 8.72852 20.7 8.85709 20.8572 8.85709H22.8572C23.0143 8.85709 23.1429 8.72852 23.1429 8.57138V6.85709H27.7143V11.7142H4.28572Z" fill="black"/>
</svg>
