<svg width="16" height="16" viewBox="0 0 16 16" fill="none" xmlns="http://www.w3.org/2000/svg">
<g clip-path="url(#clip0_10_8)">
<path d="M15.4286 1.71429H0.571429C0.255357 1.71429 0 1.96965 0 2.28572V5.14287H16V2.28572C16 1.96965 15.7446 1.71429 15.4286 1.71429ZM0 13.7143C0 14.0304 0.255357 14.2857 0.571429 14.2857H15.4286C15.7446 14.2857 16 14.0304 16 13.7143V6.71429H0V13.7143ZM10.3393 10.4286C10.3393 10.35 10.4036 10.2857 10.4821 10.2857H13.4286C13.5071 10.2857 13.5714 10.35 13.5714 10.4286V11.7143C13.5714 11.7929 13.5071 11.8572 13.4286 11.8572H10.4821C10.4036 11.8572 10.3393 11.7929 10.3393 11.7143V10.4286Z" fill="black"/>
</g>
<defs>
<clipPath id="clip0_10_8">
<rect width="16" height="16" fill="white"/>
</clipPath>
</defs>
</svg>
