<svg width="16" height="16" viewBox="0 0 16 16" fill="none" xmlns="http://www.w3.org/2000/svg">
<g clip-path="url(#clip0_10_30)">
<path d="M14.1179 4.0125C14.225 4.11964 14.2857 4.26429 14.2857 4.41607V15.4286C14.2857 15.7446 14.0304 16 13.7143 16H2.28572C1.96965 16 1.71429 15.7446 1.71429 15.4286V0.571429C1.71429 0.255357 1.96965 0 2.28572 0H9.86965C10.0214 0 10.1679 0.0607143 10.275 0.167857L14.1179 4.0125ZM12.9679 4.67857L9.60715 1.31786V4.67857H12.9679ZM4.57144 7.46429C4.53355 7.46429 4.49721 7.47934 4.47042 7.50613C4.44363 7.53292 4.42858 7.56926 4.42858 7.60714V8.46429C4.42858 8.50217 4.44363 8.53851 4.47042 8.5653C4.49721 8.59209 4.53355 8.60714 4.57144 8.60714H11.4286C11.4665 8.60714 11.5028 8.59209 11.5296 8.5653C11.5564 8.53851 11.5714 8.50217 11.5714 8.46429V7.60714C11.5714 7.56926 11.5564 7.53292 11.5296 7.50613C11.5028 7.47934 11.4665 7.46429 11.4286 7.46429H4.57144ZM4.57144 9.89286C4.53355 9.89286 4.49721 9.90791 4.47042 9.9347C4.44363 9.96149 4.42858 9.99783 4.42858 10.0357V10.8929C4.42858 10.9307 4.44363 10.9671 4.47042 10.9939C4.49721 11.0207 4.53355 11.0357 4.57144 11.0357H7.85715C7.89504 11.0357 7.93138 11.0207 7.95817 10.9939C7.98496 10.9671 8.00001 10.9307 8.00001 10.8929V10.0357C8.00001 9.99783 7.98496 9.96149 7.95817 9.9347C7.93138 9.90791 7.89504 9.89286 7.85715 9.89286H4.57144Z" fill="black"/>
</g>
<defs>
<clipPath id="clip0_10_30">
<rect width="16" height="16" fill="white"/>
</clipPath>
</defs>
</svg>
