<svg width="45" height="45" viewBox="0 0 45 45" fill="none" xmlns="http://www.w3.org/2000/svg">
<path d="M41.509 3.83694H4.98761C3.93503 3.83694 3.07863 4.69335 3.07863 5.74593V40.7514C3.07863 41.8039 3.93503 42.6603 4.98761 42.6603H41.509C42.5616 42.6603 43.418 41.8039 43.418 40.7514V5.74558C43.418 4.69335 42.5616 3.83694 41.509 3.83694Z" fill="white"/>
<path d="M26.9979 22.9212C27.72 21.8419 28.1204 20.5295 28.06 19.1201C27.9232 15.9212 25.3631 13.2876 22.1688 13.0683C18.4619 12.8137 15.3763 15.7454 15.3763 19.3978C15.3763 20.7017 15.77 21.9132 16.4443 22.9212H16.4412C16.4429 22.9226 16.4447 22.9236 16.4468 22.925C16.7892 23.4362 17.2041 23.895 17.6766 24.2866C18.7625 25.1863 19.6924 26.2621 20.3291 27.5203C20.8097 28.4699 21.1581 29.4272 21.3855 30.1447C21.4889 30.471 21.9487 30.4717 22.0528 30.1454C22.282 29.4279 22.6318 28.4702 23.1124 27.5203C23.7491 26.2621 24.6793 25.1863 25.7653 24.2866C26.2378 23.895 26.6526 23.4362 26.9951 22.925C26.9968 22.924 26.9986 22.9226 27.0007 22.9212H26.9979Z" fill="#FA759E"/>
<path d="M22.1692 14.2137C25.2685 14.4264 27.7643 16.914 28.035 19.9839C28.061 19.7005 28.073 19.4133 28.0603 19.1201C27.9235 15.9212 25.3635 13.2876 22.1692 13.0683C18.4623 12.8137 15.3766 15.7454 15.3766 19.3978C15.3766 19.595 15.3886 19.7891 15.4062 19.9817C15.7036 16.5965 18.655 13.9725 22.1692 14.2137Z" fill="white"/>
<path d="M21.7213 22.2405C23.3025 22.2405 24.5844 20.9587 24.5844 19.3774C24.5844 17.7961 23.3025 16.5143 21.7213 16.5143C20.14 16.5143 18.8582 17.7961 18.8582 19.3774C18.8582 20.9587 20.14 22.2405 21.7213 22.2405Z" fill="#FFD7E5"/>
<path d="M16.1627 23.1321C16.5224 23.6668 16.9566 24.146 17.4526 24.5573C18.5766 25.4883 19.4389 26.5387 20.0162 27.6789C20.5017 28.6383 20.8469 29.6068 21.0509 30.2505C21.1451 30.548 21.4073 30.7406 21.7188 30.741C21.7188 30.741 21.7192 30.741 21.7195 30.741C22.0261 30.741 22.2947 30.5445 22.3882 30.2519C22.5939 29.6079 22.9409 28.639 23.4267 27.6789C24.004 26.5387 24.8664 25.4886 25.9903 24.5573C26.4807 24.1513 26.91 23.6781 27.2675 23.1511C27.2865 23.1289 27.3027 23.1047 27.3157 23.079C28.0934 21.8995 28.4723 20.5263 28.4119 19.1053C28.2688 15.7528 25.5371 12.9473 22.1934 12.7178C20.315 12.5887 18.5231 13.2223 17.1524 14.5027C15.8006 15.7651 15.0251 17.5493 15.0251 19.3982C15.0251 20.7235 15.4121 22.0046 16.1444 23.1043C16.1497 23.1138 16.156 23.123 16.1627 23.1321ZM17.6319 15.0163C18.8589 13.8705 20.4644 13.3045 22.1449 13.4191C25.1367 13.6244 27.5804 16.1353 27.7087 19.1352C27.7636 20.4212 27.4166 21.6629 26.7054 22.7257C26.704 22.7282 26.7022 22.7303 26.7008 22.7327C26.3774 23.2144 25.9871 23.6461 25.5407 24.0159C24.3422 25.0091 23.4197 26.1348 22.7988 27.3614C22.2919 28.363 21.9312 29.3699 21.7206 30.0382C21.5086 29.3699 21.1496 28.3627 20.643 27.3614C20.0222 26.1344 19.0993 25.0091 17.9009 24.0159C17.4544 23.6461 17.0645 23.2144 16.741 22.7327C16.7396 22.7303 16.7379 22.7282 16.7365 22.7257C16.0766 21.7392 15.7275 20.5885 15.7275 19.3978C15.7278 17.7434 16.4218 16.1462 17.6319 15.0163Z" fill="#3A2C60"/>
<path d="M21.7213 22.5921C23.4939 22.5921 24.9363 21.15 24.9363 19.3774C24.9363 17.6048 23.4942 16.1624 21.7213 16.1624C19.9484 16.1624 18.5062 17.6045 18.5062 19.3774C18.5066 21.15 19.9487 22.5921 21.7213 22.5921ZM21.7213 16.8659C23.1061 16.8659 24.2332 17.9926 24.2332 19.3778C24.2332 20.7629 23.1064 21.8893 21.7213 21.8893C20.3361 21.8893 19.2094 20.7626 19.2094 19.3778C19.2094 17.993 20.3365 16.8659 21.7213 16.8659Z" fill="#3A2C60"/>
</svg>
