<svg width="46" height="45" viewBox="0 0 46 45" fill="none" xmlns="http://www.w3.org/2000/svg">
<path d="M27.1275 7.84991L16.6449 3.04581C15.9183 2.71288 15.0589 3.0321 14.7259 3.7586L11.7881 10.169L10.7424 12.4506L4.52535 26.0162C4.19224 26.7427 4.51164 27.6021 5.23814 27.9352L15.7207 32.7393C16.4474 33.0724 17.3066 32.7532 17.6397 32.0265L27.8403 9.76892C28.1732 9.04224 27.854 8.18284 27.1275 7.84991Z" fill="#87796F"/>
<path d="M27.2373 7.61015L16.7546 2.80605C15.897 2.41283 14.8794 2.79111 14.4863 3.64875L11.5483 10.0591C11.4877 10.1915 11.5459 10.3481 11.6782 10.4086C11.8108 10.4691 11.9672 10.4112 12.0279 10.2789L14.9657 3.86847C15.2376 3.27503 15.9416 3.01382 16.5351 3.28541L27.0176 8.08951C27.6111 8.36162 27.8724 9.06562 27.6005 9.65906L17.3999 31.9167C17.2683 32.2041 17.0325 32.4231 16.736 32.5331C16.4396 32.6435 16.1179 32.6312 15.8305 32.4997L5.34783 27.6956C5.0606 27.564 4.84158 27.3281 4.73154 27.0317C4.6215 26.7352 4.63328 26.4136 4.76494 26.1264L10.982 12.5609C11.0426 12.4285 10.9844 12.2719 10.8521 12.2114C10.7195 12.1506 10.5633 12.2088 10.5024 12.3411L4.28576 25.9063C4.09539 26.3217 4.07816 26.7865 4.23742 27.215C4.39668 27.6436 4.71308 27.9844 5.12845 28.1746L15.611 32.9787C15.8383 33.083 16.0802 33.1353 16.3229 33.1353C16.524 33.1353 16.7256 33.0995 16.9197 33.0274C17.3482 32.8683 17.6891 32.5518 17.8795 32.1364L28.08 9.87879C28.4731 9.0208 28.095 8.0032 27.2373 7.61015Z" fill="#3A312A"/>
<path d="M35.765 14.1531L32.8293 10.3162L31.6352 8.75557L28.7582 4.99526C28.2725 4.36051 27.3637 4.23957 26.729 4.72526L7.28406 19.6029C6.64931 20.0885 6.52838 20.9973 7.01406 21.6321L14.0209 30.7899C14.5066 31.4247 15.4153 31.5456 16.0501 31.0599L35.495 16.1823C36.1298 15.6966 36.2507 14.7879 35.765 14.1531Z" fill="#DFDFDF"/>
<path d="M35.9744 13.9929L31.8447 8.59514L28.9677 4.83483C28.69 4.47184 28.2875 4.23858 27.8343 4.17846C27.3818 4.11782 26.9318 4.23787 26.5688 4.51561L7.12392 19.3932C6.76111 19.6709 6.52785 20.0733 6.46755 20.5265C6.40726 20.9796 6.52697 21.4291 6.80453 21.7919L13.8113 30.9498C14.0891 31.3128 14.4916 31.546 14.9446 31.6061C15.0212 31.6165 15.0979 31.6214 15.174 31.6214C15.5475 31.6214 15.9088 31.4998 16.2102 31.269L35.6552 16.3914C36.0181 16.1137 36.2512 15.7113 36.3115 15.2581C36.3718 14.8051 36.2521 14.3557 35.9744 13.9929ZM35.7887 15.1887C35.7471 15.5021 35.5859 15.7806 35.3347 15.9727L15.8898 30.8503C15.6388 31.0426 15.3276 31.1248 15.0144 31.0835C14.7008 31.0419 14.4224 30.8805 14.2304 30.6295L7.22341 21.4716C6.82685 20.9531 6.92582 20.2085 7.44437 19.8121L26.8893 4.9345C27.0979 4.77489 27.3477 4.69069 27.6061 4.69069C27.6587 4.69069 27.7118 4.6942 27.7649 4.70123C28.0783 4.74289 28.3569 4.90426 28.5488 5.15528L35.5557 14.3131C35.7478 14.5641 35.8306 14.8751 35.7887 15.1887Z" fill="#3A312A"/>
<path d="M8.62369 4.61487C8.45248 6.6476 6.33431 6.96858 6.33431 6.96858C8.15312 7.05418 8.60628 9.43989 8.60628 9.43989C8.64513 7.73868 10.9479 6.94344 10.9479 6.94344C9.22293 6.84008 8.62369 4.61487 8.62369 4.61487Z" fill="#DFDFDF"/>
<path d="M10.9635 6.68007C9.45109 6.58955 8.88367 4.56648 8.87804 4.54591C8.84447 4.42234 8.72705 4.34113 8.59978 4.3522C8.47234 4.36381 8.37162 4.46506 8.3609 4.5925C8.20972 6.38828 6.37228 6.69554 6.29476 6.7075C6.16064 6.72789 6.06396 6.84654 6.07099 6.98189C6.07802 7.11742 6.18648 7.22535 6.32183 7.23168C7.90879 7.30656 8.34314 9.46744 8.34736 9.48941C8.37144 9.61439 8.48078 9.70334 8.60611 9.70334C8.61349 9.70334 8.62088 9.70299 8.62826 9.70246C8.76256 9.69121 8.86679 9.58064 8.86996 9.44582C8.90424 7.94992 11.0131 7.19968 11.0344 7.1923C11.153 7.15117 11.2263 7.03164 11.2091 6.90718C11.1917 6.78256 11.089 6.68746 10.9635 6.68007ZM8.57904 8.49888C8.34051 7.94851 7.92707 7.28459 7.24539 6.93847C7.7606 6.6915 8.37197 6.25064 8.68715 5.48424C8.95978 6.02406 9.42543 6.69361 10.1521 7.01758C9.62336 7.30568 8.93517 7.79172 8.57904 8.49888Z" fill="#3A312A"/>
<path d="M4.80959 7.59961C4.68847 9.03732 3.19029 9.26443 3.19029 9.26443C4.47666 9.3249 4.79728 11.0124 4.79728 11.0124C4.8247 9.80918 6.45349 9.24668 6.45349 9.24668C5.23322 9.17373 4.80959 7.59961 4.80959 7.59961Z" fill="#DFDFDF"/>
<path d="M6.46914 8.98336C5.45558 8.92271 5.06781 7.54441 5.06412 7.53053C5.03072 7.40713 4.91435 7.32504 4.78603 7.33681C4.65841 7.34824 4.55769 7.44984 4.54697 7.57728C4.44519 8.78508 3.20295 8.99514 3.15091 9.0034C3.01679 9.02379 2.92011 9.14244 2.92714 9.27779C2.93418 9.41332 3.04263 9.52125 3.17798 9.52758C4.23882 9.5775 4.53572 11.0472 4.53836 11.0616C4.56209 11.187 4.67177 11.2761 4.79711 11.2761C4.80449 11.2761 4.8117 11.2757 4.81908 11.2752C4.95355 11.2641 5.05779 11.1534 5.06095 11.0184C5.0838 10.0148 6.52539 9.50068 6.53963 9.49576C6.65863 9.45463 6.73193 9.33527 6.7147 9.21064C6.69748 9.08601 6.59464 8.99074 6.46914 8.98336ZM4.78445 10.1778C4.62203 9.84627 4.37312 9.48398 4.00275 9.24984C4.32882 9.06685 4.65261 8.78754 4.85898 8.38553C5.04478 8.71494 5.3255 9.08057 5.72752 9.30381C5.40214 9.49717 5.02632 9.78545 4.78445 10.1778Z" fill="#3A312A"/>
<path d="M4.80291 2.91382C4.68742 4.35206 3.19011 4.58497 3.19011 4.58497C4.47666 4.64052 4.80396 6.32661 4.80396 6.32661C4.82664 5.12339 6.45332 4.55438 6.45332 4.55438C5.23269 4.48618 4.80291 2.91382 4.80291 2.91382Z" fill="#DFDFDF"/>
<path d="M6.46791 4.29102C5.45875 4.23459 5.06447 2.87018 5.05726 2.84417C5.02333 2.72094 4.90662 2.63657 4.7783 2.65133C4.65085 2.66311 4.55031 2.76489 4.54011 2.89268C4.44308 4.10083 3.20154 4.31598 3.14951 4.32442C3.01556 4.34534 2.91923 4.46434 2.92679 4.59952C2.93435 4.73504 3.04334 4.84262 3.17869 4.84842C4.2397 4.89413 4.54222 6.36243 4.54503 6.37684C4.56929 6.50165 4.67863 6.59024 4.80361 6.59024C4.81117 6.59024 4.8189 6.58989 4.82664 6.58918C4.96111 6.57758 5.065 6.46649 5.06746 6.33149C5.08644 5.32795 6.52591 4.80817 6.54015 4.80325C6.6588 4.76176 6.73175 4.64206 6.71417 4.51743C6.6966 4.39297 6.59341 4.29805 6.46791 4.29102ZM4.78779 5.49213C4.62396 5.16114 4.37382 4.79991 4.0024 4.567C4.32777 4.3826 4.6505 4.10206 4.85511 3.69934C5.04214 4.02805 5.32427 4.39262 5.72734 4.61411C5.40302 4.80905 5.02808 5.09891 4.78779 5.49213Z" fill="#3A312A"/>
<path d="M36.701 16.2598H5.05252C3.97673 16.2598 3.10451 17.1318 3.10451 18.2078V40.1382C3.10451 41.214 3.97673 42.0862 5.05252 42.0862H36.701C37.777 42.0862 38.6491 41.214 38.6491 40.1382V18.2078C38.6491 17.1318 37.7768 16.2598 36.701 16.2598Z" fill="#CCCCCC"/>
<path d="M36.701 15.9961H5.05252C3.83295 15.9961 2.84084 16.9884 2.84084 18.2078V26.5198C2.84084 26.6653 2.95878 26.7834 3.10451 26.7834C3.25023 26.7834 3.36818 26.6653 3.36818 26.5198V18.2078C3.36818 17.2791 4.12369 16.5234 5.05252 16.5234H36.701C37.6299 16.5234 38.3854 17.2791 38.3854 18.2078V40.1382C38.3854 41.0669 37.6299 41.8226 36.701 41.8226H5.05252C4.12369 41.8226 3.36818 41.0669 3.36818 40.1382V29.0271C3.36818 28.8816 3.25023 28.7634 3.10451 28.7634C2.95878 28.7634 2.84084 28.8816 2.84084 29.0271V40.1382C2.84084 41.3578 3.83295 42.3499 5.05252 42.3499H36.701C37.9206 42.3499 38.9127 41.3576 38.9127 40.1382V18.2078C38.9127 16.9884 37.9206 15.9961 36.701 15.9961Z" fill="#3A312A"/>
<path d="M40.7859 24.339H33.6904C31.0207 24.339 28.8565 26.5032 28.8565 29.173C28.8565 31.8427 31.0207 34.007 33.6904 34.007H40.7859C41.6727 34.007 42.3916 33.288 42.3916 32.401V25.9448C42.3916 25.0579 41.6727 24.339 40.7859 24.339Z" fill="#DFDFDF"/>
<path d="M40.7859 24.0753H33.6904C30.8795 24.0753 28.5928 26.3622 28.5928 29.173C28.5928 31.9837 30.8795 34.2706 33.6904 34.2706H40.7859C41.8166 34.2706 42.6553 33.432 42.6553 32.401V25.9448C42.6553 24.9138 41.8166 24.0753 40.7859 24.0753ZM42.1279 32.401C42.1279 33.1411 41.5259 33.7433 40.7859 33.7433H33.6904C31.1704 33.7433 29.1201 31.6931 29.1201 29.173C29.1201 26.6528 31.1704 24.6027 33.6904 24.6027H40.7859C41.5259 24.6027 42.1279 25.2047 42.1279 25.9448V32.401Z" fill="#3A312A"/>
<path d="M33.6026 30.9308C34.5734 30.9308 35.3604 30.1438 35.3604 29.173C35.3604 28.2022 34.5734 27.4152 33.6026 27.4152C32.6317 27.4152 31.8447 28.2022 31.8447 29.173C31.8447 30.1438 32.6317 30.9308 33.6026 30.9308Z" fill="#DFDFDF"/>
<path d="M33.6026 27.1515C32.4879 27.1515 31.5811 28.0583 31.5811 29.173C31.5811 30.2876 32.4879 31.1945 33.6026 31.1945C34.7172 31.1945 35.624 30.2876 35.624 29.173C35.624 28.0583 34.7172 27.1515 33.6026 27.1515ZM33.6026 30.6671C32.7787 30.6671 32.1084 29.9969 32.1084 29.173C32.1084 28.3491 32.7787 27.6788 33.6026 27.6788C34.4264 27.6788 35.0967 28.3491 35.0967 29.173C35.0967 29.9969 34.4264 30.6671 33.6026 30.6671Z" fill="#3A312A"/>
<path d="M31.7668 19.1049C32.4769 15.646 30.2485 12.2663 26.7896 11.5563C23.3307 10.8462 19.951 13.0746 19.241 16.5335C18.5309 19.9924 20.7593 23.372 24.2182 24.0821C27.6771 24.7922 31.0567 22.5638 31.7668 19.1049Z" fill="#DFDFDF"/>
<path d="M25.5026 11.1621C21.8319 11.1621 18.8455 14.1485 18.8455 17.8191C18.8455 21.4898 21.8319 24.476 25.5026 24.476C29.1732 24.476 32.1596 21.4898 32.1596 17.8191C32.1596 14.1485 29.1732 11.1621 25.5026 11.1621ZM25.5026 23.9486C22.1228 23.9486 19.3729 21.1989 19.3729 17.8191C19.3729 14.4394 22.1226 11.6895 25.5026 11.6895C28.8825 11.6895 31.6322 14.4394 31.6322 17.8191C31.6322 21.1989 28.8823 23.9486 25.5026 23.9486Z" fill="#3A312A"/>
<path d="M26.2626 17.0962C25.3315 16.7457 24.948 16.5157 24.948 16.1542C24.948 15.8476 25.1781 15.5409 25.8902 15.5409C26.6787 15.5409 27.1827 15.7928 27.4676 15.9133L27.7852 14.6757C27.4237 14.5002 26.9308 14.3468 26.1969 14.3141V13.3501H25.1234V14.3907C23.9513 14.6208 23.2721 15.3765 23.2721 16.3407C23.2721 17.4033 24.0717 17.9512 25.2438 18.3453C26.0545 18.6191 26.405 18.8823 26.405 19.2982C26.405 19.7366 25.9777 19.9774 25.3535 19.9774C24.6414 19.9774 23.9952 19.7473 23.535 19.4954L23.2063 20.777C23.6226 21.018 24.3347 21.2151 25.0685 21.2481V22.2887H26.142V21.1713C27.4019 20.9525 28.092 20.12 28.092 19.1449C28.092 18.1588 27.566 17.5562 26.2626 17.0962Z" fill="#87796F"/>
<path d="M26.3554 16.8493C25.5323 16.5396 25.2116 16.3448 25.2116 16.1541C25.2116 15.85 25.6367 15.8045 25.89 15.8045C26.5551 15.8045 26.993 15.9948 27.2827 16.1209L27.3644 16.156C27.4353 16.1863 27.5154 16.1838 27.5842 16.1497C27.6531 16.1156 27.7035 16.0532 27.7227 15.9788L28.0405 14.741C28.0716 14.6195 28.0129 14.4928 27.9 14.4381C27.4845 14.2367 27.0115 14.1145 26.4604 14.0669V13.3499C26.4604 13.2043 26.3424 13.0862 26.1967 13.0862H25.1232C24.9775 13.0862 24.8595 13.2043 24.8595 13.3499V14.1802C23.7117 14.4789 23.0084 15.2914 23.0084 16.3404C23.0084 17.6973 24.1582 18.258 25.1593 18.5948C26.0223 18.8864 26.1412 19.1051 26.1412 19.2979C26.1412 19.6934 25.4848 19.7135 25.3533 19.7135C24.5957 19.7135 23.9682 19.4317 23.6614 19.264C23.5899 19.2246 23.5043 19.2209 23.4299 19.2533C23.3552 19.2858 23.2997 19.3508 23.2794 19.4298L22.9509 20.7114C22.9216 20.8257 22.972 20.9459 23.0743 21.0051C23.502 21.2525 24.1478 21.433 24.8047 21.4938V22.2883C24.8047 22.4339 24.9227 22.552 25.0684 22.552H26.1419C26.2876 22.552 26.4055 22.4339 26.4055 22.2883V21.3857C27.5977 21.0997 28.3555 20.2391 28.3555 19.1445C28.3557 18.0304 27.7559 17.3436 26.3554 16.8493ZM26.0969 20.9113C25.9705 20.9332 25.8784 21.0427 25.8784 21.1711V22.0247H25.3322V21.2477C25.3322 21.1066 25.2213 20.9905 25.0803 20.9844C24.5157 20.9591 23.9263 20.8269 23.5141 20.6386L23.7098 19.8756C24.1018 20.0506 24.6818 20.2407 25.3537 20.2407C26.1526 20.2407 26.6689 19.8706 26.6689 19.2978C26.6689 18.6389 26.0246 18.3303 25.3282 18.0949C24.0719 17.6723 23.5361 17.1474 23.5361 16.3402C23.5361 15.4826 24.1485 14.8503 25.1744 14.6491C25.2981 14.6248 25.3872 14.5163 25.3872 14.3903V13.6133H25.9334V14.3137C25.9334 14.4548 26.0445 14.5708 26.1855 14.577C26.6824 14.5991 27.1064 14.681 27.4745 14.8264L27.2887 15.5503C26.9723 15.423 26.5145 15.2768 25.8903 15.2768C25.0012 15.2768 24.6846 15.7298 24.6846 16.1537C24.6846 16.7373 25.3285 17.026 26.1753 17.3443C27.5474 17.8288 27.8287 18.4141 27.8287 19.1441C27.8283 20.0487 27.1649 20.7256 26.0969 20.9113Z" fill="#3A312A"/>
<path d="M36.7016 16.5234H34.0649C34.993 16.5234 35.7488 17.2793 35.7488 18.2074V24.075H38.3856V18.2074C38.3856 17.2793 37.6297 16.5234 36.7016 16.5234Z" fill="#DFDFDF"/>
<path d="M35.7488 34.2704V40.138C35.7488 41.0661 34.993 41.8219 34.0649 41.8219H36.7016C37.6297 41.8219 38.3856 41.0661 38.3856 40.138V34.2704H35.7488Z" fill="#DFDFDF"/>
</svg>
