<svg width="16" height="16" viewBox="0 0 16 16" fill="none" xmlns="http://www.w3.org/2000/svg">
<g clip-path="url(#clip0_10_20)">
<path d="M10.1429 14.7143H5.85714C5.77857 14.7143 5.71428 14.7786 5.71428 14.8571V15.4286C5.71428 15.7446 5.96964 16 6.28571 16H9.71428C10.0304 16 10.2857 15.7446 10.2857 15.4286V14.8571C10.2857 14.7786 10.2214 14.7143 10.1429 14.7143ZM8 0C4.76607 0 2.14285 2.62321 2.14285 5.85714C2.14285 8.025 3.32142 9.91786 5.07142 10.9304V13C5.07142 13.3161 5.32678 13.5714 5.64285 13.5714H10.3571C10.6732 13.5714 10.9286 13.3161 10.9286 13V10.9304C12.6786 9.91786 13.8571 8.025 13.8571 5.85714C13.8571 2.62321 11.2339 0 8 0ZM10.2839 9.81786L9.64285 10.1893V12.2857H6.35714V10.1893L5.71607 9.81786C4.31071 9.00536 3.42857 7.50893 3.42857 5.85714C3.42857 3.33214 5.475 1.28571 8 1.28571C10.525 1.28571 12.5714 3.33214 12.5714 5.85714C12.5714 7.50893 11.6893 9.00536 10.2839 9.81786Z" fill="black"/>
</g>
<defs>
<clipPath id="clip0_10_20">
<rect width="16" height="16" fill="white"/>
</clipPath>
</defs>
</svg>
