<svg width="24" height="24" viewBox="0 0 24 24" fill="none" xmlns="http://www.w3.org/2000/svg">
<path d="M8.89283 12C8.89283 12.7957 9.2089 13.5587 9.77151 14.1213C10.3341 14.684 11.0972 15 11.8928 15C12.6885 15 13.4515 14.684 14.0142 14.1213C14.5768 13.5587 14.8928 12.7957 14.8928 12C14.8928 11.2044 14.5768 10.4413 14.0142 9.87871C13.4515 9.3161 12.6885 9.00003 11.8928 9.00003C11.0972 9.00003 10.3341 9.3161 9.77151 9.87871C9.2089 10.4413 8.89283 11.2044 8.89283 12ZM23.5232 11.309C20.9839 5.95985 17.1455 3.26788 12 3.26788C6.85176 3.26788 3.01604 5.95985 0.476757 11.3116C0.374906 11.5273 0.322083 11.7629 0.322083 12.0014C0.322083 12.2399 0.374906 12.4754 0.476757 12.6911C3.01604 18.0402 6.85444 20.7322 12 20.7322C17.1482 20.7322 20.9839 18.0402 23.5232 12.6884C23.7294 12.2545 23.7294 11.7509 23.5232 11.309ZM11.8928 16.7143C9.28926 16.7143 7.17854 14.6036 7.17854 12C7.17854 9.39646 9.28926 7.28574 11.8928 7.28574C14.4964 7.28574 16.6071 9.39646 16.6071 12C16.6071 14.6036 14.4964 16.7143 11.8928 16.7143Z" fill="black"/>
</svg>
