<svg width="45" height="46" viewBox="0 0 45 46" fill="none" xmlns="http://www.w3.org/2000/svg">
<path d="M8.25645 5.07666C8.25645 5.07666 8.85551 7.30188 10.5806 7.40506C10.5806 7.40506 8.27789 8.20047 8.23904 9.9015C8.23904 9.9015 7.78588 7.5158 5.96707 7.4302C5.96707 7.43037 8.08524 7.10939 8.25645 5.07666Z" fill="#D7E057"/>
<path d="M8.23887 10.1651C8.11354 10.1651 8.0042 10.0762 7.98012 9.95122C7.9759 9.92942 7.54172 7.76837 5.95477 7.69383C5.81942 7.68733 5.71078 7.5794 5.70375 7.44405C5.69672 7.30852 5.79358 7.19005 5.92752 7.16983C6.00504 7.1577 7.84248 6.85044 7.99365 5.05465C8.00438 4.92721 8.1051 4.82596 8.23254 4.81436C8.35893 4.80329 8.4774 4.8845 8.51098 5.00807C8.5166 5.02846 9.08385 7.05171 10.5964 7.14223C10.722 7.14979 10.8244 7.24489 10.8418 7.36934C10.8591 7.4938 10.7858 7.61333 10.6671 7.65464C10.6458 7.66202 8.53699 8.41243 8.50272 9.90798C8.49955 10.0428 8.39549 10.1534 8.26102 10.1644C8.25363 10.1648 8.24608 10.1651 8.23887 10.1651ZM6.87815 7.4001C7.55983 7.74622 7.97326 8.41014 8.21162 8.96051C8.56793 8.2537 9.25611 7.76749 9.78469 7.47921C9.05801 7.15542 8.59236 6.48569 8.31973 5.94587C8.00473 6.71227 7.39336 7.15331 6.87815 7.4001Z" fill="#3A312A"/>
<path d="M4.44217 8.06165C4.44217 8.06165 4.86598 9.63559 6.08608 9.70854C6.08608 9.70854 4.45729 10.2712 4.42986 11.4743C4.42986 11.4743 4.10924 9.78676 2.82287 9.72629C2.82287 9.72629 4.32106 9.49936 4.44217 8.06165Z" fill="#D7E057"/>
<path d="M4.42969 11.7381C4.30436 11.7381 4.19467 11.649 4.17094 11.5237C4.16813 11.5093 3.87141 10.0397 2.81057 9.98981C2.67522 9.9833 2.56676 9.87537 2.55973 9.74002C2.5527 9.60449 2.64955 9.48602 2.7835 9.46563C2.83553 9.45737 4.07795 9.24713 4.17955 8.03951C4.19027 7.9119 4.29117 7.81047 4.41861 7.79905C4.54641 7.78832 4.6633 7.86936 4.6967 7.99276C4.70039 8.00664 5.08834 9.38477 6.10172 9.44541C6.2274 9.45297 6.33006 9.54807 6.34711 9.6727C6.36434 9.79733 6.29086 9.91668 6.17203 9.95782C6.15779 9.96274 4.71621 10.4767 4.69336 11.4804C4.6902 11.6153 4.58596 11.726 4.45149 11.7372C4.44428 11.7378 4.4369 11.7381 4.42969 11.7381ZM3.63533 9.71172C4.0057 9.94604 4.25461 10.3083 4.41703 10.6398C4.65891 10.2473 5.0349 9.95922 5.35992 9.76569C4.95791 9.54262 4.67719 9.17682 4.49139 8.84741C4.2852 9.24942 3.96158 9.52873 3.63533 9.71172Z" fill="#3A312A"/>
<path d="M4.44217 3.37561C4.44217 3.37561 4.86598 4.94956 6.08608 5.02251C6.08608 5.02251 4.45729 5.58518 4.42986 6.78823C4.42986 6.78823 4.10924 5.10073 2.82287 5.04026C2.82287 5.04043 4.32106 4.8135 4.44217 3.37561Z" fill="#D7E057"/>
<path d="M4.42969 7.05209C4.30418 7.05209 4.19467 6.96297 4.17076 6.83764C4.16795 6.82323 3.87123 5.3537 2.81039 5.30377C2.67486 5.29727 2.56641 5.18934 2.55938 5.05399C2.55235 4.91846 2.6492 4.79998 2.78315 4.77977C2.83518 4.77151 4.0776 4.56127 4.1792 3.35348C4.18992 3.22586 4.29082 3.12444 4.41826 3.11301C4.54606 3.10229 4.66295 3.18315 4.69635 3.30672C4.70004 3.32061 5.08799 4.69891 6.10154 4.75956C6.22705 4.76711 6.32988 4.86239 6.34694 4.98702C6.36416 5.11164 6.29069 5.231 6.17186 5.27213C6.15762 5.27706 4.71604 5.79104 4.69319 6.79475C4.69002 6.92957 4.58578 7.04032 4.45131 7.05157C4.44428 7.05192 4.4369 7.05209 4.42969 7.05209ZM3.63533 5.02586C4.0057 5.26018 4.25461 5.62264 4.41703 5.95399C4.65891 5.56147 5.0349 5.27336 5.3601 5.08C4.95809 4.85694 4.67737 4.49114 4.49156 4.16172C4.2852 4.56356 3.96158 4.84288 3.63533 5.02586Z" fill="#3A312A"/>
<path d="M22.7575 8.13048L8.27613 22.6119C7.57266 23.3153 7.57266 24.4565 8.27613 25.16L20.5193 37.4032C21.2228 38.1066 22.3639 38.1066 23.0674 37.4032L41.6496 18.821C42.3531 18.1175 42.3531 16.9763 41.6496 16.2728L29.4064 4.02968C28.703 3.32621 27.562 3.32621 26.8583 4.02968L24.5412 6.34683L22.7575 8.13048Z" fill="#F16C7A"/>
<path d="M21.7932 38.1937C21.2643 38.1937 20.7353 37.9925 20.3326 37.5897L8.08946 25.3466C7.2842 24.5413 7.2842 23.2309 8.08946 22.4256L22.571 7.94424C22.674 7.84124 22.8408 7.84124 22.9438 7.94424C23.0469 8.04725 23.0469 8.21424 22.9438 8.31708L8.46229 22.7985C8.1719 23.0889 8.01194 23.4752 8.01194 23.886C8.01194 24.297 8.1719 24.6832 8.46229 24.9738L20.7055 37.2169C21.3052 37.8165 22.281 37.8165 22.8807 37.2169L41.4631 18.6346C41.7535 18.3442 41.9135 17.9578 41.9135 17.5468C41.9135 17.1358 41.7537 16.7497 41.4631 16.4593L29.2199 4.2161C28.9296 3.92571 28.5432 3.76575 28.1326 3.76575C27.7216 3.76575 27.3354 3.92571 27.0448 4.2161L24.7275 6.53325C24.6245 6.63625 24.4577 6.63625 24.3547 6.53325C24.2517 6.43024 24.2517 6.26325 24.3547 6.16042L26.672 3.84327C27.0621 3.45321 27.5806 3.2384 28.1326 3.2384C28.6843 3.2384 29.2029 3.45321 29.593 3.84327L41.8359 16.0864C42.6412 16.8917 42.6412 18.2021 41.8359 19.0074L23.2536 37.5897C22.851 37.9923 22.3221 38.1937 21.7932 38.1937Z" fill="#3A312A"/>
<path d="M30.8043 5.42797L9.67413 26.5581L12.45 29.334L33.5801 8.20385L30.8043 5.42797Z" fill="#87796F"/>
<path d="M12.4502 29.598C12.3827 29.598 12.3152 29.5723 12.2637 29.5208L9.48779 26.7449C9.38479 26.6421 9.38479 26.4749 9.48779 26.3721L30.6183 5.24156C30.7213 5.13855 30.8881 5.13855 30.9911 5.24156L33.7671 8.0175C33.8701 8.12033 33.8701 8.2875 33.7671 8.39033L12.6367 29.5206C12.5852 29.5721 12.5177 29.598 12.4502 29.598ZM10.0471 26.5584L12.4502 28.9615L33.2077 8.204L30.8046 5.8009L10.0471 26.5584Z" fill="#3A312A"/>
<path d="M2.87297 34.5451V40.8226C2.87297 41.8177 3.67963 42.6244 4.67473 42.6244H30.954C31.9491 42.6244 32.7558 41.8177 32.7558 40.8226V23.5082C32.7558 22.5131 31.9491 21.7064 30.954 21.7064H4.67473C3.67963 21.7064 2.87297 22.5131 2.87297 23.5082V31.9719V34.5451Z" fill="#FCE8CB"/>
<path d="M30.954 42.8881H4.67473C3.53584 42.8881 2.6093 41.9615 2.6093 40.8226V34.5451C2.6093 34.3994 2.72725 34.2815 2.87297 34.2815C3.01869 34.2815 3.13664 34.3994 3.13664 34.5451V40.8226C3.13664 41.6708 3.82658 42.3607 4.67473 42.3607H30.954C31.8022 42.3607 32.4921 41.6708 32.4921 40.8226V23.5082C32.4921 22.66 31.8022 21.9701 30.954 21.9701H4.67473C3.82658 21.9701 3.13664 22.66 3.13664 23.5082V31.9719C3.13664 32.1176 3.01869 32.2355 2.87297 32.2355C2.72725 32.2355 2.6093 32.1176 2.6093 31.9719V23.5082C2.6093 22.3693 3.53584 21.4427 4.67473 21.4427H30.954C32.0929 21.4427 33.0195 22.3693 33.0195 23.5082V40.8226C33.0195 41.9615 32.0927 42.8881 30.954 42.8881Z" fill="#3A312A"/>
<path d="M9.11742 31.1022C10.9111 31.1022 12.3652 29.6481 12.3652 27.8544C12.3652 26.0607 10.9111 24.6067 9.11742 24.6067C7.32375 24.6067 5.86969 26.0607 5.86969 27.8544C5.86969 29.6481 7.32375 31.1022 9.11742 31.1022Z" fill="#D7E057"/>
<path d="M9.11742 31.3658C7.18119 31.3658 5.60602 29.7907 5.60602 27.8544C5.60602 25.9182 7.18119 24.343 9.11742 24.343C11.0537 24.343 12.6288 25.9182 12.6288 27.8544C12.6288 29.7907 11.0537 31.3658 9.11742 31.3658ZM9.11742 24.8705C7.47194 24.8705 6.13336 26.2091 6.13336 27.8546C6.13336 29.5001 7.47194 30.8387 9.11742 30.8387C10.7627 30.8387 12.1015 29.5001 12.1015 27.8546C12.1015 26.2091 10.7627 24.8705 9.11742 24.8705Z" fill="#3A312A"/>
<path d="M19.9512 39.1251H6.35924C6.21352 39.1251 6.09557 39.0072 6.09557 38.8615C6.09557 38.7157 6.21352 38.5978 6.35924 38.5978H19.9512C20.0969 38.5978 20.2148 38.7157 20.2148 38.8615C20.2148 39.0072 20.0969 39.1251 19.9512 39.1251Z" fill="#3A312A"/>
<path d="M19.9512 35.9611H6.35924C6.21352 35.9611 6.09557 35.8431 6.09557 35.6974C6.09557 35.5517 6.21352 35.4337 6.35924 35.4337H19.9512C20.0969 35.4337 20.2148 35.5517 20.2148 35.6974C20.2148 35.8431 20.0969 35.9611 19.9512 35.9611Z" fill="#3A312A"/>
<path d="M41.4213 33.0536H41.1087C40.9256 32.2529 40.6063 31.5043 40.1764 30.8332L40.4063 30.6032C40.6712 30.3383 40.6712 29.9089 40.4063 29.644L39.185 28.4227C38.9201 28.1578 38.4906 28.1578 38.2257 28.4227L37.9872 28.6612C37.3175 28.2393 36.5718 27.927 35.7754 27.7494V27.4077C35.7754 27.0331 35.4716 26.7294 35.097 26.7294H33.3698C32.9952 26.7294 32.6914 27.0331 32.6914 27.4077V27.7494C32.2692 27.8632 31.1493 28.2393 30.4796 28.6612L30.2411 28.4227C29.9762 28.1578 29.5467 28.1578 29.2816 28.4227L28.0603 29.644C27.7954 29.9089 27.7954 30.3383 28.0603 30.6032L28.2902 30.8332C27.8603 31.5043 27.5411 32.2529 27.3579 33.0536H27.0454C26.6708 33.0536 26.367 33.3574 26.367 33.732V35.4592C26.367 35.8338 26.6708 36.1375 27.0454 36.1375H27.3415C27.5177 36.9481 27.833 37.7066 28.2614 38.3867L28.0603 38.5879C27.7954 38.8528 27.7954 39.2823 28.0603 39.5473L29.2816 40.7687C29.5465 41.0336 29.9762 41.0336 30.2411 40.7687L30.4335 40.5762C31.115 41.0128 31.8767 41.335 32.6913 41.5166V41.7836C32.6913 42.1582 32.995 42.462 33.3696 42.462H35.0968C35.4714 42.462 35.7752 42.1582 35.7752 41.7836V41.5166C36.5899 41.3349 37.3514 41.0127 38.0329 40.5762L38.2254 40.7687C38.4903 41.0336 38.9197 41.0336 39.1846 40.7687L40.406 39.5473C40.6709 39.2824 40.6709 38.8528 40.406 38.5879L40.2047 38.3867C40.6332 37.7066 40.9486 36.9481 41.1247 36.1375H41.4209C41.7955 36.1375 42.0993 35.8338 42.0993 35.4592V33.732C42.0996 33.3572 41.7959 33.0536 41.4213 33.0536ZM34.2334 38.1219C32.2857 38.1219 30.7069 36.5431 30.7069 34.5954C30.7069 32.6477 32.2857 31.0689 34.2334 31.0689C36.1811 31.0689 37.7599 32.6477 37.7599 34.5954C37.7599 36.5431 36.1811 38.1219 34.2334 38.1219Z" fill="#8AC6DD"/>
<path d="M35.097 42.7253H33.3698C32.8504 42.7253 32.428 42.3028 32.428 41.7833V41.7246C31.7385 41.5497 31.0825 41.2766 30.4724 40.91L30.4276 40.9549C30.0602 41.3223 29.4629 41.3223 29.0955 40.9549L27.8742 39.7335C27.507 39.3663 27.507 38.7685 27.8742 38.4013L27.9285 38.3468C27.5692 37.7384 27.3022 37.0858 27.1324 36.4011H27.0455C26.5261 36.4011 26.1037 35.9785 26.1037 35.4591V33.7318C26.1037 33.2124 26.5261 32.7898 27.0455 32.7898H27.1512C27.3263 32.1145 27.5963 31.4709 27.9563 30.8717L27.8742 30.7896C27.5068 30.4224 27.5068 29.8248 27.8742 29.4575L29.0955 28.2362C29.2734 28.0583 29.5098 27.9602 29.7615 27.9602C30.0132 27.9602 30.2497 28.0583 30.4276 28.2362L30.5213 28.3299C31.1497 27.9759 31.9874 27.6853 32.428 27.5512V27.4076C32.428 26.8882 32.8504 26.4656 33.3698 26.4656H35.097C35.6164 26.4656 36.0388 26.8882 36.0388 27.4076V27.541C36.7098 27.7113 37.3502 27.9754 37.9473 28.328L38.0392 28.236C38.2171 28.0582 38.4536 27.9602 38.7053 27.9602C38.957 27.9602 39.1934 28.0583 39.3713 28.2362L40.5926 29.4575C40.96 29.8248 40.96 30.4224 40.5926 30.7896L40.5104 30.8717C40.8704 31.4709 41.1405 32.1145 41.3156 32.7898H41.4211C41.9405 32.7898 42.3631 33.2124 42.3631 33.7318V35.4591C42.3631 35.9785 41.9405 36.4011 41.4211 36.4011H41.3344C41.1646 37.0858 40.8976 37.7384 40.5383 38.3468L40.5926 38.4013C40.9598 38.7685 40.9598 39.3663 40.5926 39.7335L39.3713 40.9549C39.0039 41.3223 38.4066 41.3223 38.0392 40.9549L37.9944 40.91C37.3843 41.2766 36.7283 41.5497 36.0388 41.7246V41.7833C36.0388 42.3029 35.6164 42.7253 35.097 42.7253ZM30.4339 40.3122C30.4828 40.3122 30.5322 40.3259 30.5761 40.3539C31.2442 40.7821 31.9753 41.0865 32.7489 41.2591C32.8695 41.286 32.9553 41.3929 32.9553 41.5165V41.7835C32.9553 42.0122 33.1413 42.1982 33.3698 42.1982H35.097C35.3257 42.1982 35.5115 42.0122 35.5115 41.7835V41.5165C35.5115 41.3929 35.5971 41.286 35.7179 41.2591C36.4915 41.0865 37.2227 40.7821 37.8907 40.3539C37.9955 40.2869 38.1321 40.3022 38.2194 40.3896L38.4121 40.5822C38.5738 40.7438 38.8368 40.7438 38.9985 40.5822L40.2198 39.3609C40.3815 39.1992 40.3815 38.936 40.2198 38.7743L40.0185 38.573C39.9315 38.486 39.9162 38.3501 39.9818 38.2461C40.4023 37.5788 40.7002 36.8506 40.8672 36.0815C40.8934 35.9602 41.0008 35.8737 41.1249 35.8737H41.4209C41.6496 35.8737 41.8356 35.6878 41.8356 35.4591V33.7318C41.8356 33.5032 41.6494 33.3172 41.4209 33.3172H41.1086C40.9857 33.3172 40.8788 33.2323 40.8516 33.1122C40.6777 32.3523 40.3757 31.6334 39.9542 30.9752C39.8872 30.871 39.9022 30.7341 39.9897 30.6465L40.2198 30.4166C40.3815 30.2549 40.3815 29.9919 40.2198 29.8302L38.9985 28.6089C38.8419 28.4521 38.5687 28.4521 38.4121 28.6089L38.1735 28.8474C38.0865 28.9342 37.9506 28.9497 37.8466 28.884C37.19 28.4702 36.4737 28.175 35.718 28.0063C35.5973 27.9794 35.5117 27.8725 35.5117 27.749V27.4072C35.5117 27.1785 35.3257 26.9926 35.0972 26.9926H33.37C33.1413 26.9926 32.9555 27.1785 32.9555 27.4072V27.749C32.9555 27.8681 32.8755 27.9726 32.7604 28.0035C32.3372 28.1174 31.2572 28.4827 30.6206 28.8838C30.5165 28.9495 30.3808 28.9341 30.2936 28.8472L30.0549 28.6087C29.8983 28.4517 29.6251 28.4519 29.4685 28.6085L28.2472 29.8299C28.0855 29.9916 28.0855 30.2545 28.2472 30.4163L28.4771 30.6462C28.5646 30.7339 28.5796 30.8705 28.5126 30.9749C28.0913 31.6332 27.7893 32.3521 27.6154 33.1119C27.5882 33.2317 27.4813 33.3168 27.3584 33.3168H27.0459C26.8172 33.3168 26.6314 33.5028 26.6314 33.7315V35.4587C26.6314 35.6874 26.8174 35.8734 27.0459 35.8734H27.3422C27.4663 35.8734 27.5736 35.9599 27.5999 36.0812C27.7669 36.8502 28.0651 37.5785 28.4854 38.2457C28.5509 38.3498 28.5356 38.4857 28.4486 38.5727L28.2473 38.774C28.0856 38.9357 28.0856 39.1988 28.2473 39.3605L29.4687 40.5819C29.6304 40.7434 29.8934 40.7434 30.0551 40.5819L30.2477 40.3892C30.298 40.3386 30.3657 40.3122 30.4339 40.3122ZM34.2334 38.3857C32.1435 38.3857 30.4432 36.6853 30.4432 34.5955C30.4432 32.5056 32.1435 30.8053 34.2334 30.8053C36.3233 30.8053 38.0234 32.5056 38.0234 34.5955C38.0234 36.6855 36.3233 38.3857 34.2334 38.3857ZM34.2334 31.3326C32.4345 31.3326 30.9705 32.7963 30.9705 34.5955C30.9705 36.3946 32.4343 37.8583 34.2334 37.8583C36.0323 37.8583 37.4961 36.3946 37.4961 34.5955C37.4961 32.7963 36.0323 31.3326 34.2334 31.3326Z" fill="#3A312A"/>
<path d="M41.9138 17.5473C41.9138 17.9568 41.7538 18.3436 41.4638 18.6336L33.6328 26.4664H33.3708C33.246 26.4664 33.1283 26.491 33.0193 26.535V24.0828L38.2769 18.8252C38.98 18.1203 38.98 16.9795 38.2769 16.2764L32.0788 10.0783L33.5818 8.57715L41.4638 16.4592C41.7538 16.7492 41.9138 17.1359 41.9138 17.5473Z" fill="#D34E5C"/>
<path d="M30.4318 5.42712L28.9306 6.93005L26.6314 4.63083L27.0445 4.21599C27.3363 3.92595 27.7212 3.76599 28.1326 3.76599C28.5439 3.76599 28.9306 3.92595 29.2206 4.21599L30.4318 5.42712Z" fill="#D34E5C"/>
<path d="M30.8054 5.80051L29.3029 7.30127L31.7049 9.706L33.2074 8.20524L30.8054 5.80051Z" fill="#695B51"/>
</svg>
